<svg xmlns="http://www.w3.org/2000/svg" width="1000" height="320"><rect width="100%" height="100%" fill="white"/><text x="20" y="25" font-family="sans-serif">Hull girder Q4 20x4: von Mises</text><circle cx="82.1" cy="450.0" r="8" fill="#d73027" fill-opacity="0.944"/><circle cx="126.2" cy="450.0" r="8" fill="#d73027" fill-opacity="0.950"/><circle cx="170.3" cy="450.0" r="8" fill="#d73027" fill-opacity="0.908"/><circle cx="214.4" cy="450.0" r="7" fill="#d73027" fill-opacity="0.876"/><circle cx="258.5" cy="450.0" r="7" fill="#d73027" fill-opacity="0.843"/><circle cx="302.6" cy="450.0" r="7" fill="#d73027" fill-opacity="0.809"/><circle cx="346.7" cy="450.0" r="6" fill="#d73027" fill-opacity="0.776"/><circle cx="390.8" cy="450.0" r="6" fill="#d73027" fill-opacity="0.742"/><circle cx="434.9" cy="450.0" r="5" fill="#d73027" fill-opacity="0.709"/><circle cx="479.0" cy="450.0" r="5" fill="#d73027" fill-opacity="0.675"/><circle cx="523.1" cy="450.0" r="5" fill="#d73027" fill-opacity="0.642"/><circle cx="567.2" cy="450.0" r="4" fill="#d73027" fill-opacity="0.609"/><circle cx="611.3" cy="450.0" r="4" fill="#d73027" fill-opacity="0.575"/><circle cx="655.4" cy="450.0" r="3" fill="#d73027" fill-opacity="0.542"/><circle cx="699.5" cy="450.0" r="3" fill="#d73027" fill-opacity="0.509"/><circle cx="743.6" cy="450.0" r="3" fill="#d73027" fill-opacity="0.475"/><circle cx="787.7" cy="450.0" r="2" fill="#d73027" fill-opacity="0.442"/><circle cx="831.8" cy="450.0" r="2" fill="#d73027" fill-opacity="0.409"/><circle cx="875.9" cy="450.0" r="2" fill="#d73027" fill-opacity="0.377"/><circle cx="920.0" cy="450.0" r="2" fill="#d73027" fill-opacity="0.350"/><circle cx="82.1" cy="323.3" r="3" fill="#d73027" fill-opacity="0.525"/><circle cx="126.2" cy="323.3" r="3" fill="#d73027" fill-opacity="0.542"/><circle cx="170.3" cy="323.3" r="3" fill="#d73027" fill-opacity="0.521"/><circle cx="214.4" cy="323.3" r="3" fill="#d73027" fill-opacity="0.512"/><circle cx="258.5" cy="323.3" r="3" fill="#d73027" fill-opacity="0.501"/><circle cx="302.6" cy="323.3" r="3" fill="#d73027" fill-opacity="0.490"/><circle cx="346.7" cy="323.3" r="3" fill="#d73027" fill-opacity="0.479"/><circle cx="390.8" cy="323.3" r="3" fill="#d73027" fill-opacity="0.468"/><circle cx="434.9" cy="323.3" r="2" fill="#d73027" fill-opacity="0.457"/><circle cx="479.0" cy="323.3" r="2" fill="#d73027" fill-opacity="0.447"/><circle cx="523.1" cy="323.3" r="2" fill="#d73027" fill-opacity="0.436"/><circle cx="567.2" cy="323.3" r="2" fill="#d73027" fill-opacity="0.426"/><circle cx="611.3" cy="323.3" r="2" fill="#d73027" fill-opacity="0.415"/><circle cx="655.4" cy="323.3" r="2" fill="#d73027" fill-opacity="0.405"/><circle cx="699.5" cy="323.3" r="2" fill="#d73027" fill-opacity="0.396"/><circle cx="743.6" cy="323.3" r="2" fill="#d73027" fill-opacity="0.387"/><circle cx="787.7" cy="323.3" r="2" fill="#d73027" fill-opacity="0.378"/><circle cx="831.8" cy="323.3" r="2" fill="#d73027" fill-opacity="0.371"/><circle cx="875.9" cy="323.3" r="2" fill="#d73027" fill-opacity="0.365"/><circle cx="920.0" cy="323.3" r="2" fill="#d73027" fill-opacity="0.362"/><circle cx="82.1" cy="196.7" r="3" fill="#d73027" fill-opacity="0.525"/><circle cx="126.2" cy="196.7" r="3" fill="#d73027" fill-opacity="0.542"/><circle cx="170.3" cy="196.7" r="3" fill="#d73027" fill-opacity="0.521"/><circle cx="214.4" cy="196.7" r="3" fill="#d73027" fill-opacity="0.512"/><circle cx="258.5" cy="196.7" r="3" fill="#d73027" fill-opacity="0.501"/><circle cx="302.6" cy="196.7" r="3" fill="#d73027" fill-opacity="0.490"/><circle cx="346.7" cy="196.7" r="3" fill="#d73027" fill-opacity="0.479"/><circle cx="390.8" cy="196.7" r="3" fill="#d73027" fill-opacity="0.468"/><circle cx="434.9" cy="196.7" r="2" fill="#d73027" fill-opacity="0.457"/><circle cx="479.0" cy="196.7" r="2" fill="#d73027" fill-opacity="0.447"/><circle cx="523.1" cy="196.7" r="2" fill="#d73027" fill-opacity="0.436"/><circle cx="567.2" cy="196.7" r="2" fill="#d73027" fill-opacity="0.426"/><circle cx="611.3" cy="196.7" r="2" fill="#d73027" fill-opacity="0.415"/><circle cx="655.4" cy="196.7" r="2" fill="#d73027" fill-opacity="0.405"/><circle cx="699.5" cy="196.7" r="2" fill="#d73027" fill-opacity="0.396"/><circle cx="743.6" cy="196.7" r="2" fill="#d73027" fill-opacity="0.387"/><circle cx="787.7" cy="196.7" r="2" fill="#d73027" fill-opacity="0.378"/><circle cx="831.8" cy="196.7" r="2" fill="#d73027" fill-opacity="0.371"/><circle cx="875.9" cy="196.7" r="2" fill="#d73027" fill-opacity="0.365"/><circle cx="920.0" cy="196.7" r="2" fill="#d73027" fill-opacity="0.362"/><circle cx="82.1" cy="70.0" r="8" fill="#d73027" fill-opacity="0.944"/><circle cx="126.2" cy="70.0" r="8" fill="#d73027" fill-opacity="0.950"/><circle cx="170.3" cy="70.0" r="8" fill="#d73027" fill-opacity="0.908"/><circle cx="214.4" cy="70.0" r="7" fill="#d73027" fill-opacity="0.876"/><circle cx="258.5" cy="70.0" r="7" fill="#d73027" fill-opacity="0.843"/><circle cx="302.6" cy="70.0" r="7" fill="#d73027" fill-opacity="0.809"/><circle cx="346.7" cy="70.0" r="6" fill="#d73027" fill-opacity="0.776"/><circle cx="390.8" cy="70.0" r="6" fill="#d73027" fill-opacity="0.742"/><circle cx="434.9" cy="70.0" r="5" fill="#d73027" fill-opacity="0.709"/><circle cx="479.0" cy="70.0" r="5" fill="#d73027" fill-opacity="0.675"/><circle cx="523.1" cy="70.0" r="5" fill="#d73027" fill-opacity="0.642"/><circle cx="567.2" cy="70.0" r="4" fill="#d73027" fill-opacity="0.609"/><circle cx="611.3" cy="70.0" r="4" fill="#d73027" fill-opacity="0.575"/><circle cx="655.4" cy="70.0" r="3" fill="#d73027" fill-opacity="0.542"/><circle cx="699.5" cy="70.0" r="3" fill="#d73027" fill-opacity="0.509"/><circle cx="743.6" cy="70.0" r="3" fill="#d73027" fill-opacity="0.475"/><circle cx="787.7" cy="70.0" r="2" fill="#d73027" fill-opacity="0.442"/><circle cx="831.8" cy="70.0" r="2" fill="#d73027" fill-opacity="0.409"/><circle cx="875.9" cy="70.0" r="2" fill="#d73027" fill-opacity="0.377"/><circle cx="920.0" cy="70.0" r="2" fill="#d73027" fill-opacity="0.350"/></svg>