# vtk DataFile Version 3.0
SUBOFF appended initial ice impact; displacement scale 1
ASCII
DATASET UNSTRUCTURED_GRID
POINTS 811 double
0.06585742193150053 0.08344189401642199 -0.08344189401642196
0.0659230703236496 0.10905577963841116 -0.04514534600316372
0.06592642065199875 0.11803197118561788 2.414003721336596e-20
0.0659230703236496 0.10905577963841116 0.04514534600316372
0.06585742193150053 0.08344189401642199 0.08344189401642198
0.0659230703236496 0.04514534600316373 0.10905577963841116
0.06592642065199875 7.360192436119383e-18 0.11803197118561788
0.0659230703236496 -0.045145346003163715 0.10905577963841116
0.06585742193150053 -0.08344189401642198 0.08344189401642199
0.0659230703236496 -0.10905577963841116 0.045145346003163736
0.06592642065199875 -0.11803197118561788 1.416516401633135e-17
0.0659230703236496 -0.10905577963841119 -0.04514534600316366
0.06585742193150053 -0.083441894016422 -0.08344189401642198
0.0659230703236496 -0.04514534600316369 -0.10905577963841118
0.06592642065199875 -2.1774803503655513e-17 -0.11803197118561788
0.0659230703236496 0.04514534600316365 -0.10905577963841119
0.3310824884385546 0.14170490050424042 -0.14170490050424042
0.3310824884385546 0.1851463749403323 -0.07669013952449978
0.3310824884385546 0.20040099214782683 1.6558623070837582e-20
0.3310824884385546 0.1851463749403323 0.07669013952449978
0.3310824884385546 0.14170490050424042 0.14170490050424042
0.3310824884385546 0.0766901395244998 0.1851463749403323
0.3310824884385546 1.2377588828977201e-17 0.20040099214782683
0.3310824884385546 -0.07669013952449977 0.1851463749403323
0.3310824884385546 -0.14170490050424042 0.14170490050424042
0.3310824884385546 -0.1851463749403323 0.0766901395244998
0.3310824884385546 -0.20040099214782683 2.4217022408152178e-17
0.3310824884385546 -0.18514637494033234 -0.07669013952449967
0.3310824884385546 -0.14170490050424045 -0.14170490050424042
0.3310824884385546 -0.07669013952449973 -0.18514637494033231
0.3310824884385546 -3.685126989472736e-17 -0.20040099214782683
0.3310824884385546 0.07669013952449966 -0.18514637494033234
0.5963677345231383 0.1650017218348315 -0.16500172183483147
0.5963677345231383 0.21558513889022457 -0.08929828837441839
0.5963677345231383 0.23334767283373153 0.0
0.5963677345231383 0.21558513889022457 0.08929828837441839
0.5963677345231383 0.1650017218348315 0.16500172183483147
0.5963677345231383 0.0892982883744184 0.21558513889022457
0.5963677345231383 1.4379870267508037e-17 0.23334767283373153
0.5963677345231383 -0.08929828837441839 0.21558513889022457
0.5963677345231383 -0.16500172183483147 0.1650017218348315
0.5963677345231383 -0.21558513889022457 0.08929828837441842
0.5963677345231383 -0.23334767283373153 2.829057338699527e-17
0.5963677345231383 -0.21558513889022463 -0.08929828837441826
0.5963677345231383 -0.16500172183483153 -0.16500172183483147
0.5963677345231383 -0.08929828837441833 -0.2155851388902246
0.5963677345231383 -4.289122819474838e-17 -0.23334767283373153
0.5963677345231383 0.08929828837441825 -0.21558513889022463
0.8617572028036423 0.17752683945994463 -0.1775268394599446
0.8617572028036423 0.23194999370991776 -0.09607683318700203
0.8617572028036423 0.2510608640494848 0.0
0.8617572028036423 0.23194999370991776 0.09607683318700203
0.8617572028036423 0.17752683945994463 0.1775268394599446
0.8617572028036423 0.09607683318700204 0.23194999370991776
0.8617572028036423 1.5464741770934846e-17 0.2510608640494848
0.8617572028036423 -0.09607683318700201 0.23194999370991776
0.8617572028036423 -0.1775268394599446 0.17752683945994463
0.8617572028036423 -0.23194999370991776 0.09607683318700205
0.8617572028036423 -0.2510608640494848 3.048718805613816e-17
0.8617572028036423 -0.2319499937099178 -0.09607683318700189
0.8617572028036423 -0.17752683945994466 -0.1775268394599446
0.8617572028036423 -0.09607683318700196 -0.23194999370991778
0.8617572028036423 -4.6162546725040394e-17 -0.2510608640494848
0.8617572028036423 0.09607683318700187 -0.2319499937099178
0.9244518319198375 0.17838306351105387 -0.17838306351105385
0.9244518319198375 0.2330687043447335 -0.09654021830431374
0.9244518319198375 0.25227174771499355 -1.350002068846174e-20
0.9244518319198375 0.2330687043447335 0.09654021830431374
0.9244518319198375 0.17838306351105387 0.17838306351105385
0.9244518319198375 0.09654021830431375 0.2330687043447335
0.9244518319198375 1.5525530582731918e-17 0.25227174771499355
0.9244518319198375 -0.09654021830431372 0.2330687043447335
0.9244518319198375 -0.17838306351105385 0.17838306351105387
0.9244518319198375 -0.2330687043447335 0.09654021830431377
0.9244518319198375 -0.25227174771499355 3.065956056549844e-17
0.9244518319198375 -0.23306870434473356 -0.09654021830431359
0.9244518319198375 -0.1783830635110539 -0.17838306351105385
0.9244518319198375 -0.09654021830431365 -0.23306870434473353
0.9244518319198375 -4.640109147924574e-17 -0.25227174771499355
0.9244518319198375 0.09654021830431357 -0.23306870434473356
0.9858193232547519 0.17863467254302343 -0.1786346725430234
0.9858193232547519 0.23339744738753332 -0.0966763881311772
0.9858193232547519 0.25262757662042046 -1.362647502495836e-20
0.9858193232547519 0.23339744738753332 0.0966763881311772
0.9858193232547519 0.17863467254302343 0.1786346725430234
0.9858193232547519 0.09667638813117721 0.23339744738753332
0.9858193232547519 1.5547199270615183e-17 0.25262757662042046
0.9858193232547519 -0.09667638813117718 0.23339744738753332
0.9858193232547519 -0.1786346725430234 0.17863467254302343
0.9858193232547519 -0.23339744738753332 0.09667638813117722
0.9858193232547519 -0.25262757662042046 3.069923076550657e-17
0.9858193232547519 -0.23339744738753337 -0.09667638813117706
0.9858193232547519 -0.17863467254302345 -0.1786346725430234
0.9858193232547519 -0.09667638813117713 -0.23339744738753335
0.9858193232547519 -4.646445363652109e-17 -0.25262757662042046
0.9858193232547519 0.09667638813117704 -0.23339744738753337
1.0471968815236516 0.17864512389942683 -0.1786451238994268
1.0471968815236516 0.2334111027427427 -0.09668204436450396
1.0471968815236516 0.25264235707039134 0.0
1.0471968815236516 0.2334111027427427 0.09668204436450396
1.0471968815236516 0.17864512389942683 0.1786451238994268
1.0471968815236516 0.09668204436450398 0.2334111027427427
1.0471968815236516 1.556173120503463e-17 0.25264235707039134
1.0471968815236516 -0.09668204436450395 0.2334111027427427
1.0471968815236516 -0.1786451238994268 0.17864512389942683
1.0471968815236516 -0.2334111027427427 0.09668204436450399
1.0471968815236516 -0.25264235707039134 3.068757859195763e-17
1.0471968815236516 -0.23341110274274277 -0.09668204436450381
1.0471968815236516 -0.17864512389942686 -0.1786451238994268
1.0471968815236516 -0.0966820443645039 -0.23341110274274274
1.0471968815236516 -4.646725170604807e-17 -0.25264235707039134
1.0471968815236516 0.0966820443645038 -0.23341110274274277
1.1085786066803822 0.1786451238917325 -0.17864512389173248
1.1085786066803822 0.2334111027326896 -0.09668204436033984
1.1085786066803822 0.25264235705950994 0.0
1.1085786066803822 0.2334111027326896 0.09668204436033984
1.1085786066803822 0.1786451238917325 0.17864512389173248
1.1085786066803822 0.09668204436033985 0.2334111027326896
1.1085786066803822 1.556173120503463e-17 0.25264235705950994
1.1085786066803822 -0.09668204436033982 0.2334111027326896
1.1085786066803822 -0.17864512389173248 0.1786451238917325
1.1085786066803822 -0.2334111027326896 0.09668204436033986
1.1085786066803822 -0.25264235705950994 3.0684064607828224e-17
1.1085786066803822 -0.23341110273268967 -0.09668204436033968
1.1085786066803822 -0.17864512389173254 -0.17864512389173248
1.1085786066803822 -0.09668204436033977 -0.23341110273268964
1.1085786066803822 -4.647595656641768e-17 -0.25264235705950994
1.1085786066803822 0.09668204436033967 -0.23341110273268967
1.1271149999999999 0.1786451238917325 -0.17864512389173248
1.1271149999999999 0.2334111027326896 -0.09668204436033984
1.1271149999999999 0.25264235705950994 0.0
1.1271149999999999 0.2334111027326896 0.09668204436033984
1.1271149999999999 0.1786451238917325 0.17864512389173248
1.1271149999999999 0.09668204436033985 0.2334111027326896
1.1271149999999999 1.556173120503463e-17 0.25264235705950994
1.1271149999999999 -0.09668204436033982 0.2334111027326896
1.1271149999999999 -0.17864512389173248 0.1786451238917325
1.1271149999999999 -0.2334111027326896 0.09668204436033986
1.1271149999999999 -0.25264235705950994 3.069439551490857e-17
1.1271149999999999 -0.23341110273268967 -0.09668204436033968
1.1271149999999999 -0.17864512389173254 -0.17864512389173248
1.1271149999999999 -0.09668204436033977 -0.23341110273268964
1.1271149999999999 -4.646725487470481e-17 -0.25264235705950994
1.1271149999999999 0.09668204436033967 -0.23341110273268967
1.1699605125140402 0.1786451238917325 -0.17864512389173248
1.1699605125140402 0.2334111027326896 -0.09668204436033984
1.1699605125140402 0.25264235705950994 0.0
1.1699605125140402 0.2334111027326896 0.09668204436033984
1.1699605125140402 0.1786451238917325 0.17864512389173248
1.1699605125140402 0.09668204436033985 0.2334111027326896
1.1699605125140402 1.556173120503463e-17 0.25264235705950994
1.1699605125140402 -0.09668204436033982 0.2334111027326896
1.1699605125140402 -0.17864512389173248 0.1786451238917325
1.1699605125140402 -0.2334111027326896 0.09668204436033986
1.1699605125140402 -0.25264235705950994 3.069028420079339e-17
1.1699605125140402 -0.23341110273268967 -0.09668204436033968
1.1699605125140402 -0.17864512389173254 -0.17864512389173248
1.1699605125140402 -0.09668204436033977 -0.23341110273268964
1.1699605125140402 -4.6468604510465954e-17 -0.25264235705950994
1.1699605125140402 0.09668204436033967 -0.23341110273268967
1.2313424183476984 0.1786451238917325 -0.17864512389173248
1.2313424183476984 0.2334111027326896 -0.09668204436033984
1.2313424183476984 0.25264235705950994 0.0
1.2313424183476984 0.2334111027326896 0.09668204436033984
1.2313424183476984 0.1786451238917325 0.17864512389173248
1.2313424183476984 0.09668204436033985 0.2334111027326896
1.2313424183476984 1.556173120503463e-17 0.25264235705950994
1.2313424183476984 -0.09668204436033982 0.2334111027326896
1.2313424183476984 -0.17864512389173248 0.1786451238917325
1.2313424183476984 -0.2334111027326896 0.09668204436033986
1.2313424183476984 -0.25264235705950994 3.0687584929271104e-17
1.2313424183476984 -0.23341110273268967 -0.09668204436033968
1.2313424183476984 -0.17864512389173254 -0.17864512389173248
1.2313424183476984 -0.09668204436033977 -0.23341110273268964
1.2313424183476984 -4.646725487470481e-17 -0.25264235705950994
1.2313424183476984 0.09668204436033967 -0.23341110273268967
1.2927243241813566 0.1786451238917325 -0.17864512389173248
1.2927243241813566 0.2334111027326896 -0.09668204436033984
1.2927243241813566 0.25264235705950994 0.0
1.2927243241813566 0.2334111027326896 0.09668204436033984
1.2927243241813566 0.1786451238917325 0.17864512389173248
1.2927243241813566 0.09668204436033985 0.2334111027326896
1.2927243241813566 1.556173120503463e-17 0.25264235705950994
1.2927243241813566 -0.09668204436033982 0.2334111027326896
1.2927243241813566 -0.17864512389173248 0.1786451238917325
1.2927243241813566 -0.2334111027326896 0.09668204436033986
1.2927243241813566 -0.25264235705950994 3.068782509408658e-17
1.2927243241813566 -0.23341110273268967 -0.09668204436033968
1.2927243241813566 -0.17864512389173254 -0.17864512389173248
1.2927243241813566 -0.09668204436033977 -0.23341110273268964
1.2927243241813566 -4.646737495711255e-17 -0.25264235705950994
1.2927243241813566 0.09668204436033967 -0.23341110273268967
1.39255875 0.1786451238917325 -0.17864512389173248
1.39255875 0.2334111027326896 -0.09668204436033984
1.39255875 0.25264235705950994 0.0
1.39255875 0.2334111027326896 0.09668204436033984
1.39255875 0.1786451238917325 0.17864512389173248
1.39255875 0.09668204436033985 0.2334111027326896
1.39255875 1.556173120503463e-17 0.25264235705950994
1.39255875 -0.09668204436033982 0.2334111027326896
1.39255875 -0.17864512389173248 0.1786451238917325
1.39255875 -0.2334111027326896 0.09668204436033986
1.39255875 -0.25264235705950994 3.069314497124133e-17
1.39255875 -0.23341110273268967 -0.09668204436033968
1.39255875 -0.17864512389173254 -0.17864512389173248
1.39255875 -0.09668204436033977 -0.23341110273268964
1.39255875 -4.6460879205502095e-17 -0.25264235705950994
1.39255875 0.09668204436033967 -0.23341110273268967
1.6580024999999998 0.1786451238917325 -0.17864512389173248
1.6580024999999998 0.2334111027326896 -0.09668204436033984
1.6580024999999998 0.25264235705950994 0.0
1.6580024999999998 0.2334111027326896 0.09668204436033984
1.6580024999999998 0.1786451238917325 0.17864512389173248
1.6580024999999998 0.09668204436033985 0.2334111027326896
1.6580024999999998 1.556173120503463e-17 0.25264235705950994
1.6580024999999998 -0.09668204436033982 0.2334111027326896
1.6580024999999998 -0.17864512389173248 0.1786451238917325
1.6580024999999998 -0.2334111027326896 0.09668204436033986
1.6580024999999998 -0.25264235705950994 3.069509026137184e-17
1.6580024999999998 -0.23341110273268967 -0.09668204436033968
1.6580024999999998 -0.17864512389173254 -0.17864512389173248
1.6580024999999998 -0.09668204436033977 -0.23341110273268964
1.6580024999999998 -4.645840835991114e-17 -0.25264235705950994
1.6580024999999998 0.09668204436033967 -0.23341110273268967
1.92344625 0.1786451238917325 -0.17864512389173248
1.92344625 0.2334111027326896 -0.09668204436033984
1.92344625 0.25264235705950994 0.0
1.92344625 0.2334111027326896 0.09668204436033984
1.92344625 0.1786451238917325 0.17864512389173248
1.92344625 0.09668204436033985 0.2334111027326896
1.92344625 1.556173120503463e-17 0.25264235705950994
1.92344625 -0.09668204436033982 0.2334111027326896
1.92344625 -0.17864512389173248 0.1786451238917325
1.92344625 -0.2334111027326896 0.09668204436033986
1.92344625 -0.25264235705950994 3.069509026137184e-17
1.92344625 -0.23341110273268967 -0.09668204436033968
1.92344625 -0.17864512389173254 -0.17864512389173248
1.92344625 -0.09668204436033977 -0.23341110273268964
1.92344625 -4.645840835991114e-17 -0.25264235705950994
1.92344625 0.09668204436033967 -0.23341110273268967
2.18889 0.1786451238917325 -0.17864512389173248
2.18889 0.2334111027326896 -0.09668204436033984
2.18889 0.25264235705950994 0.0
2.18889 0.2334111027326896 0.09668204436033984
2.18889 0.1786451238917325 0.17864512389173248
2.18889 0.09668204436033985 0.2334111027326896
2.18889 1.556173120503463e-17 0.25264235705950994
2.18889 -0.09668204436033982 0.2334111027326896
2.18889 -0.17864512389173248 0.1786451238917325
2.18889 -0.2334111027326896 0.09668204436033986
2.18889 -0.25264235705950994 3.069509026137184e-17
2.18889 -0.23341110273268967 -0.09668204436033968
2.18889 -0.17864512389173254 -0.17864512389173248
2.18889 -0.09668204436033977 -0.23341110273268964
2.18889 -4.645840835991114e-17 -0.25264235705950994
2.18889 0.09668204436033967 -0.23341110273268967
2.45433375 0.1786451238917325 -0.17864512389173248
2.45433375 0.2334111027326896 -0.09668204436033984
2.45433375 0.25264235705950994 0.0
2.45433375 0.2334111027326896 0.09668204436033984
2.45433375 0.1786451238917325 0.17864512389173248
2.45433375 0.09668204436033985 0.2334111027326896
2.45433375 1.556173120503463e-17 0.25264235705950994
2.45433375 -0.09668204436033982 0.2334111027326896
2.45433375 -0.17864512389173248 0.1786451238917325
2.45433375 -0.2334111027326896 0.09668204436033986
2.45433375 -0.25264235705950994 3.069509026137184e-17
2.45433375 -0.23341110273268967 -0.09668204436033968
2.45433375 -0.17864512389173254 -0.17864512389173248
2.45433375 -0.09668204436033977 -0.23341110273268964
2.45433375 -4.645840835991114e-17 -0.25264235705950994
2.45433375 0.09668204436033967 -0.23341110273268967
2.7197775 0.1786451238917325 -0.17864512389173248
2.7197775 0.2334111027326896 -0.09668204436033984
2.7197775 0.25264235705950994 0.0
2.7197775 0.2334111027326896 0.09668204436033984
2.7197775 0.1786451238917325 0.17864512389173248
2.7197775 0.09668204436033985 0.2334111027326896
2.7197775 1.556173120503463e-17 0.25264235705950994
2.7197775 -0.09668204436033982 0.2334111027326896
2.7197775 -0.17864512389173248 0.1786451238917325
2.7197775 -0.2334111027326896 0.09668204436033986
2.7197775 -0.25264235705950994 3.069509026137184e-17
2.7197775 -0.23341110273268967 -0.09668204436033968
2.7197775 -0.17864512389173254 -0.17864512389173248
2.7197775 -0.09668204436033977 -0.23341110273268964
2.7197775 -4.645840835991114e-17 -0.25264235705950994
2.7197775 0.09668204436033967 -0.23341110273268967
2.9852212489722576 0.17864512389173276 -0.17864512389173273
2.9852212489722576 0.23341110273268995 -0.09668204436033997
2.9852212489722576 0.25264235705951027 0.0
2.9852212489722576 0.23341110273268995 0.09668204436033997
2.9852212489722576 0.17864512389173276 0.17864512389173273
2.9852212489722576 0.09668204436033999 0.23341110273268995
2.9852212489722576 1.556173120503463e-17 0.25264235705951027
2.9852212489722576 -0.09668204436033996 0.23341110273268995
2.9852212489722576 -0.17864512389173273 0.17864512389173276
2.9852212489722576 -0.23341110273268995 0.09668204436034
2.9852212489722576 -0.25264235705951027 3.0695090108093876e-17
2.9852212489722576 -0.23341110273269 -0.09668204436033982
2.9852212489722576 -0.1786451238917328 -0.17864512389173273
2.9852212489722576 -0.0966820443603399 -0.23341110273268997
2.9852212489722576 -4.6458408278763977e-17 -0.25264235705951027
2.9852212489722576 0.09668204436033981 -0.23341110273269
3.2506082348850356 0.17864562645636353 -0.1786456264563635
3.2506082348850356 0.23341175936502398 -0.09668231634635821
3.2506082348850356 0.2526430677932271 0.0
3.2506082348850356 0.23341175936502398 0.09668231634635821
3.2506082348850356 0.17864562645636353 0.1786456264563635
3.2506082348850356 0.09668231634635822 0.23341175936502398
3.2506082348850356 1.5561708932145966e-17 0.2526430677932271
3.2506082348850356 -0.09668231634635818 0.23341175936502398
3.2506082348850356 -0.1786456264563635 0.17864562645636353
3.2506082348850356 -0.23341175936502398 0.09668231634635824
3.2506082348850356 -0.2526430677932271 3.068652997481093e-17
3.2506082348850356 -0.23341175936502404 -0.09668231634635807
3.2506082348850356 -0.17864562645636356 -0.1786456264563635
3.2506082348850356 -0.09668231634635813 -0.233411759365024
3.2506082348850356 -4.646668285169739e-17 -0.2526430677932271
3.2506082348850356 0.09668231634635804 -0.23341175936502404
3.5158626554546135 0.1641439683190672 -0.16414396831906716
3.5158626554546135 0.2144644299135344 -0.08883407551680006
3.5158626554546135 0.23213462617856442 -1.4331472189264967e-20
3.5158626554546135 0.2144644299135344 0.08883407551680006
3.5158626554546135 0.1641439683190672 0.16414396831906716
3.5158626554546135 0.08883407551680007 0.2144644299135344
3.5158626554546135 1.4290418823425557e-17 0.23213462617856442
3.5158626554546135 -0.08883407551680005 0.2144644299135344
3.5158626554546135 -0.16414396831906716 0.1641439683190672
3.5158626554546135 -0.2144644299135344 0.08883407551680007
3.5158626554546135 -0.23213462617856442 2.817955642555169e-17
3.5158626554546135 -0.21446442991353445 -0.08883407551679992
3.5158626554546135 -0.16414396831906722 -0.16414396831906716
3.5158626554546135 -0.08883407551679999 -0.21446442991353443
3.5158626554546135 -4.2756604692762545e-17 -0.23213462617856442
3.5158626554546135 0.0888340755167999 -0.21446442991353445
3.7811464568809092 0.11226672972423452 -0.11226672972423449
3.7811464568809092 0.14668355124547067 -0.06075831630292285
3.7811464568809092 0.15876913177928711 -2.912039400586073e-20
3.7811464568809092 0.14668355124547067 0.06075831630292285
3.7811464568809092 0.11226672972423452 0.11226672972423449
3.7811464568809092 0.06075831630292286 0.14668355124547067
3.7811464568809092 9.781104408012805e-18 0.15876913177928711
3.7811464568809092 -0.06075831630292284 0.14668355124547067
3.7811464568809092 -0.11226672972423449 0.11226672972423452
3.7811464568809092 -0.14668355124547067 0.06075831630292287
3.7811464568809092 -0.15876913177928711 1.921276408795528e-17
3.7811464568809092 -0.1466835512454707 -0.06075831630292276
3.7811464568809092 -0.11226672972423453 -0.11226672972423449
3.7811464568809092 -0.060758316302922805 -0.1466835512454707
3.7811464568809092 -2.934331322403841e-17 -0.15876913177928711
3.7811464568809092 0.06075831630292275 -0.1466835512454707
3.8062452197195293 0.10617063116503876 -0.10617063116503875
3.8062452197195293 0.13871861463778926 -0.057459131536579264
3.8062452197195293 0.1501479465193094 1.2201354127437012e-20
3.8062452197195293 0.13871861463778926 0.057459131536579264
3.8062452197195293 0.10617063116503876 0.10617063116503875
3.8062452197195293 0.05745913153657927 0.13871861463778926
3.8062452197195293 9.29291503321035e-18 0.1501479465193094
3.8062452197195293 -0.05745913153657926 0.13871861463778926
3.8062452197195293 -0.10617063116503875 0.10617063116503876
3.8062452197195293 -0.13871861463778926 0.05745913153657928
3.8062452197195293 -0.1501479465193094 1.821978944259759e-17
3.8062452197195293 -0.13871861463778928 -0.05745913153657918
3.8062452197195293 -0.10617063116503878 -0.10617063116503875
3.8062452197195293 -0.05745913153657922 -0.13871861463778926
3.8062452197195293 -2.7585912600572562e-17 -0.1501479465193094
3.8062452197195293 0.057459131536579174 -0.13871861463778928
3.835625737490075 0.09893869776133622 -0.0989386977613362
3.835625737490075 0.12926963828805915 -0.053545237381978424
3.835625737490075 0.13992044821761424 0.0
3.835625737490075 0.12926963828805915 0.053545237381978424
3.835625737490075 0.09893869776133621 0.0989386977613362
3.835625737490075 0.05354523738197843 0.12926963828805915
3.835625737490075 8.6543636051783e-18 0.13992044821761424
3.835625737490075 -0.05354523738197842 0.12926963828805915
3.835625737490075 -0.09893869776133621 0.09893869776133621
3.835625737490075 -0.12926963828805915 0.053545237381978444
3.835625737490075 -0.13992044821761424 1.694249996236001e-17
3.835625737490075 -0.12926963828805918 -0.05354523738197835
3.835625737490075 -0.09893869776133622 -0.0989386977613362
3.835625737490075 -0.05354523738197839 -0.12926963828805915
3.835625737490075 -2.5655932478505497e-17 -0.13992044821761424
3.835625737490075 0.05354523738197834 -0.12926963828805918
3.866420417189415 0.0912997720136045 -0.09129977201360448
3.866420417189415 0.11928890081463231 -0.04941108055799965
3.866420417189415 0.129117375823211 -1.2188391439589218e-20
3.866420417189415 0.11928890081463231 0.04941108055799965
3.866420417189415 0.0912997720136045 0.09129977201360448
3.866420417189415 0.049411080557999656 0.11928890081463231
3.866420417189415 7.980641204323073e-18 0.129117375823211
3.866420417189415 -0.04941108055799964 0.11928890081463231
3.866420417189415 -0.09129977201360448 0.0912997720136045
3.866420417189415 -0.11928890081463231 0.04941108055799966
3.866420417189415 -0.129117375823211 1.5644384231216824e-17
3.866420417189415 -0.11928890081463234 -0.04941108055799957
3.866420417189415 -0.09129977201360451 -0.09129977201360448
3.866420417189415 -0.049411080557999615 -0.11928890081463232
3.866420417189415 -2.374690934993579e-17 -0.129117375823211
3.866420417189415 0.049411080557999566 -0.11928890081463234
3.898771381336179 0.08327559536425626 -0.08327559536425624
3.898771381336179 0.1088048087809681 -0.04506842744848821
3.898771381336179 0.11776947637882523 -1.2705459367678826e-20
3.898771381336179 0.1088048087809681 0.04506842744848821
3.898771381336179 0.08327559536425626 0.08327559536425624
3.898771381336179 0.04506842744848821 0.1088048087809681
3.898771381336179 7.285309028519367e-18 0.11776947637882523
3.898771381336179 -0.045068427448488206 0.1088048087809681
3.898771381336179 -0.08327559536425624 0.08327559536425626
3.898771381336179 -0.1088048087809681 0.04506842744848822
3.898771381336179 -0.11776947637882523 1.4265687032214443e-17
3.898771381336179 -0.10880480878096811 -0.045068427448488144
3.898771381336179 -0.08327559536425627 -0.08327559536425624
3.898771381336179 -0.04506842744848818 -0.1088048087809681
3.898771381336179 -2.1678050654410594e-17 -0.11776947637882523
3.898771381336179 0.04506842744848814 -0.10880480878096811
3.9328155861414062 0.07490957516547507 -0.07490957516547506
3.9328155861414062 0.09787407662583286 -0.04054076994316351
3.9328155861414062 0.1059381371506216 -1.3421436664883048e-20
3.9328155861414062 0.09787407662583286 0.04054076994316351
3.9328155861414062 0.07490957516547507 0.07490957516547506
3.9328155861414062 0.04054076994316352 0.09787407662583286
3.9328155861414062 6.5602685049759894e-18 0.1059381371506216
3.9328155861414062 -0.0405407699431635 0.09787407662583286
3.9328155861414062 -0.07490957516547506 0.07490957516547507
3.9328155861414062 -0.09787407662583286 0.040540769943163524
3.9328155861414062 -0.1059381371506216 1.2704472473340604e-17
3.9328155861414062 -0.09787407662583289 -0.04054076994316345
3.9328155861414062 -0.07490957516547507 -0.07490957516547506
3.9328155861414062 -0.04054076994316348 -0.09787407662583288
3.9328155861414062 -1.947948396495472e-17 -0.1059381371506216
3.9328155861414062 0.04054076994316345 -0.09787407662583289
3.9686743831657236 0.06627567945940001 -0.0662756794594
3.9686743831657236 0.08659334825367002 -0.03586813925796669
3.9686743831657236 0.09372796474697542 -1.4419055770582655e-20
3.9686743831657236 0.08659334825367002 0.03586813925796669
3.9686743831657236 0.06627567945940001 0.0662756794594
3.9686743831657236 0.03586813925796669 0.08659334825367002
3.9686743831657236 5.811855431287237e-18 0.09372796474697542
3.9686743831657236 -0.03586813925796668 0.08659334825367002
3.9686743831657236 -0.0662756794594 0.0662756794594
3.9686743831657236 -0.08659334825367002 0.0358681392579667
3.9686743831657236 -0.09372796474697542 1.1162301077915829e-17
3.9686743831657236 -0.08659334825367004 -0.035868139257966634
3.9686743831657236 -0.0662756794594 -0.0662756794594
3.9686743831657236 -0.03586813925796666 -0.08659334825367003
3.9686743831657236 -1.7204861401532388e-17 -0.09372796474697542
3.9686743831657236 0.03586813925796663 -0.08659334825367004
4.00643695096619 0.05749027766226568 -0.057490277662265665
4.00643695096619 0.07511466763397597 -0.03111351406714021
4.00643695096619 0.08130353037457111 0.0
4.00643695096619 0.07511466763397597 0.03111351406714021
4.00643695096619 0.05749027766226568 0.057490277662265665
4.00643695096619 0.031113514067140215 0.07511466763397597
4.00643695096619 5.0658612019304836e-18 0.08130353037457111
4.00643695096619 -0.0311135140671402 0.07511466763397597
4.00643695096619 -0.057490277662265665 0.05749027766226568
4.00643695096619 -0.07511466763397597 0.031113514067140215
4.00643695096619 -0.08130353037457111 9.738020039262692e-18
4.00643695096619 -0.07511466763397598 -0.03111351406714016
4.00643695096619 -0.057490277662265686 -0.057490277662265665
4.00643695096619 -0.031113514067140188 -0.07511466763397597
4.00643695096619 -1.488262171411283e-17 -0.08130353037457111
4.00643695096619 0.03111351406714016 -0.07511466763397598
4.046705259839997 0.04861208973392376 -0.04861208973392375
4.046705259839997 0.06351475609159189 -0.026308673383956514
4.046705259839997 0.06874787659701287 -7.958460549731268e-20
4.046705259839997 0.06351475609159189 0.026308673383956514
4.046705259839997 0.04861208973392376 0.04861208973392375
4.046705259839997 0.026308673383956517 0.06351475609159189
4.046705259839997 4.220112393478132e-18 0.06874787659701287
4.046705259839997 -0.02630867338395651 0.06351475609159189
4.046705259839997 -0.04861208973392375 0.04861208973392376
4.046705259839997 -0.06351475609159189 0.02630867338395652
4.046705259839997 -0.06874787659701287 8.38716838329139e-18
4.046705259839997 -0.0635147560915919 -0.026308673383956475
4.046705259839997 -0.048612089733923766 -0.04861208973392375
4.046705259839997 -0.026308673383956496 -0.06351475609159189
4.046705259839997 -1.2540960272188426e-17 -0.06874787659701287
4.046705259839997 0.026308673383956472 -0.0635147560915919
4.3121794228331805 0.016691313747131977 -0.01669131374713197
4.312169653760586 0.021815099930884672 -0.009021494178813132
4.312169009297237 0.023606957119969827 -9.29733268617991e-20
4.312169653760586 0.021815099930884672 0.009021494178813132
4.3121794228331805 0.016691313747131974 0.01669131374713197
4.312169653760586 0.009021494178813134 0.021815099930884672
4.312169009297237 1.442873087576567e-18 0.023606957119969827
4.312169653760586 -0.009021494178813132 0.021815099930884672
4.3121794228331805 -0.01669131374713197 0.016691313747131974
4.312169653760586 -0.021815099930884672 0.009021494178813136
4.312169009297237 -0.023606957119969827 2.8586289548184424e-18
4.312169653760586 -0.02181509993088468 -0.009021494178813119
4.3121794228331805 -0.016691313747131977 -0.01669131374713197
4.312169653760586 -0.009021494178813125 -0.021815099930884676
4.312169009297237 -4.251141490344868e-18 -0.023606957119969827
4.312169653760586 0.009021494178813119 -0.02181509993088468
0.014631537338539332 -0.04163768970043965 -0.041637689700439635
0.01471756358983116 -1.0967868542538977e-17 -0.0590340627583479
0.014631537338539332 0.04163768970043964 -0.041637689700439635
0.01471756358983116 -0.0590340627583479 7.18290466765034e-18
0.0015 -8.064664253342142e-21 -8.064664253342142e-21
0.01471756358983116 0.0590340627583479 -1.3579757267611846e-20
0.014631537338539332 -0.041637689700439635 0.04163768970043964
0.01471756358983116 3.683115695381549e-18 0.0590340627583479
0.014631537338539332 0.04163768970043964 0.041637689700439635
4.346543552022651 -0.007911800137327759 -0.007911800137327755
4.346395221803345 -2.1664471907745954e-18 -0.011270820680392151
4.346543552022651 0.007911800137327757 -0.007911800137327755
4.346395221803345 -0.011270820680392151 1.2154274090448075e-18
4.3545 0.0 0.0
4.346395221803345 0.011270820680392151 2.2887071813825605e-20
4.346543552022651 -0.007911800137327755 0.007911800137327757
4.346395221803345 7.564796713122702e-19 0.011270820680392151
4.346543552022651 0.007911800137327757 0.007911800137327755
0.9244328891794078 0.0 0.3223713658627583
0.9244328891794078 0.0 0.39097110362443055
0.9244328891794078 0.0 0.45957084138610277
0.9858147950130659 0.0 0.3281085702900066
0.9858147950130659 0.0 0.4020895707945993
0.9858147950130659 0.0 0.47607057129919206
1.047196700846724 0.0 0.32817464082109826
1.047196700846724 0.0 0.4022069245826866
1.047196700846724 0.0 0.476239208344275
1.1085786066803822 0.0 0.32815187767926013
1.1085786066803822 0.0 0.4021613982990103
1.1085786066803822 0.0 0.4761709189187606
1.1699605125140402 0.0 0.32744183507086794
1.1699605125140402 0.0 0.40074131308222594
1.1699605125140402 0.0 0.474040791093584
1.2313424183476984 0.0 0.32556380499856513
1.2313424183476984 0.0 0.3969852529376203
1.2313424183476984 0.0 0.4684067008766756
1.2927243241813566 0.0 0.32261851850170753
1.2927243241813566 0.0 0.3910946799439051
1.2927243241813566 0.0 0.4595708413861028
3.822261801987989 0.18486177815452706 0.0
3.8377880965331848 0.2181579998474767 0.0
3.853314391078381 0.2514542215404263 0.0
3.850384105358885 0.17804239617064183 0.0
3.8646476559691076 0.21474830885553406 0.0
3.8789112065793296 0.2514542215404263 0.0
3.879447302052356 0.17083994933861132 0.0
3.8919776620663176 0.21114708543951882 0.0
3.904508022080279 0.2514542215404263 0.0
3.9095455354505417 0.1632751547833227 0.0
3.9198251865158844 0.20736468816187448 0.0
3.9301048375812275 0.2514542215404263 0.0
3.9407696711863616 0.15538907642722877 0.0
3.948235662134269 0.20342164898382753 0.0
3.9557016530821767 0.2514542215404263 0.0
3.9732000489290824 0.14725159597051332 0.0
3.977249258756104 0.1993529087554698 0.0
3.9812984685831254 0.2514542215404263 0.0
4.006895284084075 0.1389726017260039 0.0
4.006895284084075 0.1952134116332151 0.0
4.006895284084075 0.2514542215404263 0.0
3.822261801987989 -0.18486177815452706 2.2639038490162968e-17
3.8377880965331848 -0.2181579998474767 2.671664962216011e-17
3.853314391078381 -0.2514542215404263 3.079426075415725e-17
3.850384105358885 -0.17804239617064183 2.180390505829015e-17
3.8646476559691076 -0.21474830885553406 2.62990829062237e-17
3.8789112065793296 -0.2514542215404263 3.079426075415725e-17
3.879447302052356 -0.17083994933861132 2.0921859712402632e-17
3.8919776620663176 -0.21114708543951882 2.585806023327994e-17
3.904508022080279 -0.2514542215404263 3.079426075415725e-17
3.9095455354505417 -0.1632751547833227 1.999543956856848e-17
3.9198251865158844 -0.20736468816187448 2.5394850161362866e-17
3.9301048375812275 -0.2514542215404263 3.079426075415725e-17
3.9407696711863616 -0.15538907642722877 1.9029673506906914e-17
3.948235662134269 -0.20342164898382753 2.491196713053208e-17
3.9557016530821767 -0.2514542215404263 3.079426075415725e-17
3.9732000489290824 -0.14725159597051332 1.8033119567462844e-17
3.977249258756104 -0.1993529087554698 2.4413690160810047e-17
3.9812984685831254 -0.2514542215404263 3.079426075415725e-17
4.006895284084075 -0.1389726017260039 1.7019235187293063e-17
4.006895284084075 -0.1952134116332151 2.3906747970725157e-17
4.006895284084075 -0.2514542215404263 3.079426075415725e-17
3.822261801987989 1.1319519245081484e-17 0.18486177815452706
3.8377880965331848 1.3358324811080055e-17 0.2181579998474767
3.853314391078381 1.5397130377078625e-17 0.2514542215404263
3.850384105358885 1.0901952529145075e-17 0.17804239617064183
3.8646476559691076 1.314954145311185e-17 0.21474830885553406
3.8789112065793296 1.5397130377078625e-17 0.2514542215404263
3.879447302052356 1.0460929856201316e-17 0.17083994933861132
3.8919776620663176 1.292903011663997e-17 0.21114708543951882
3.904508022080279 1.5397130377078625e-17 0.2514542215404263
3.9095455354505417 9.99771978428424e-18 0.1632751547833227
3.9198251865158844 1.2697425080681433e-17 0.20736468816187448
3.9301048375812275 1.5397130377078625e-17 0.2514542215404263
3.9407696711863616 9.514836753453457e-18 0.15538907642722877
3.948235662134269 1.245598356526604e-17 0.20342164898382753
3.9557016530821767 1.5397130377078625e-17 0.2514542215404263
3.9732000489290824 9.016559783731422e-18 0.14725159597051332
3.977249258756104 1.2206845080405024e-17 0.1993529087554698
3.9812984685831254 1.5397130377078625e-17 0.2514542215404263
4.006895284084075 8.509617593646531e-18 0.1389726017260039
4.006895284084075 1.1953373985362578e-17 0.1952134116332151
4.006895284084075 1.5397130377078625e-17 0.2514542215404263
3.822261801987989 -3.395855773524445e-17 -0.18486177815452706
3.8377880965331848 -4.007497443324016e-17 -0.2181579998474767
3.853314391078381 -4.619139113123587e-17 -0.2514542215404263
3.850384105358885 -3.270585758743522e-17 -0.17804239617064183
3.8646476559691076 -3.9448624359335546e-17 -0.21474830885553406
3.8789112065793296 -4.619139113123587e-17 -0.2514542215404263
3.879447302052356 -3.1382789568603945e-17 -0.17083994933861132
3.8919776620663176 -3.8787090349919904e-17 -0.21114708543951882
3.904508022080279 -4.619139113123587e-17 -0.2514542215404263
3.9095455354505417 -2.999315935285271e-17 -0.1632751547833227
3.9198251865158844 -3.809227524204429e-17 -0.20736468816187448
3.9301048375812275 -4.619139113123587e-17 -0.2514542215404263
3.9407696711863616 -2.854451026036037e-17 -0.15538907642722877
3.948235662134269 -3.736795069579812e-17 -0.20342164898382753
3.9557016530821767 -4.619139113123587e-17 -0.2514542215404263
3.9732000489290824 -2.704967935119426e-17 -0.14725159597051332
3.977249258756104 -3.6620535241215065e-17 -0.1993529087554698
3.9812984685831254 -4.619139113123587e-17 -0.2514542215404263
4.006895284084075 -2.5528852780939588e-17 -0.1389726017260039
4.006895284084075 -3.586012195608773e-17 -0.1952134116332151
4.006895284084075 -4.619139113123587e-17 -0.2514542215404263
-0.3 -0.6 0.481289208344275
0.11299999999999999 -0.6 0.481289208344275
0.11299999999999999 -0.3 0.481289208344275
-0.3 -0.3 0.481289208344275
0.11299999999999999 -0.6 0.481289208344275
0.526 -0.6 0.481289208344275
0.526 -0.3 0.481289208344275
0.11299999999999999 -0.3 0.481289208344275
0.526 -0.6 0.481289208344275
0.9390000000000001 -0.6 0.481289208344275
0.9390000000000001 -0.3 0.481289208344275
0.526 -0.3 0.481289208344275
0.9389999999999998 -0.6 0.481289208344275
1.3519999999999999 -0.6 0.481289208344275
1.3519999999999999 -0.3 0.481289208344275
0.9389999999999998 -0.3 0.481289208344275
1.3519999999999999 -0.6 0.481289208344275
1.765 -0.6 0.481289208344275
1.765 -0.3 0.481289208344275
1.3519999999999999 -0.3 0.481289208344275
1.765 -0.6 0.481289208344275
2.178 -0.6 0.481289208344275
2.178 -0.3 0.481289208344275
1.765 -0.3 0.481289208344275
2.178 -0.6 0.481289208344275
2.5909999999999997 -0.6 0.481289208344275
2.5909999999999997 -0.3 0.481289208344275
2.178 -0.3 0.481289208344275
2.591 -0.6 0.481289208344275
3.004 -0.6 0.481289208344275
3.004 -0.3 0.481289208344275
2.591 -0.3 0.481289208344275
3.004 -0.6 0.481289208344275
3.417 -0.6 0.481289208344275
3.417 -0.3 0.481289208344275
3.004 -0.3 0.481289208344275
3.417 -0.6 0.481289208344275
3.8299999999999996 -0.6 0.481289208344275
3.8299999999999996 -0.3 0.481289208344275
3.417 -0.3 0.481289208344275
3.83 -0.6 0.481289208344275
4.243 -0.6 0.481289208344275
4.243 -0.3 0.481289208344275
3.83 -0.3 0.481289208344275
4.243 -0.6 0.481289208344275
4.656000000000001 -0.6 0.481289208344275
4.656000000000001 -0.3 0.481289208344275
4.243 -0.3 0.481289208344275
-0.3 -0.3 0.481289208344275
0.11299999999999999 -0.3 0.481289208344275
0.11299999999999999 0.0 0.481289208344275
-0.3 0.0 0.481289208344275
0.11299999999999999 -0.3 0.481289208344275
0.526 -0.3 0.481289208344275
0.526 0.0 0.481289208344275
0.11299999999999999 0.0 0.481289208344275
0.526 -0.3 0.481289208344275
0.9390000000000001 -0.3 0.481289208344275
0.9390000000000001 0.0 0.481289208344275
0.526 0.0 0.481289208344275
0.9389999999999998 -0.3 0.481289208344275
1.3519999999999999 -0.3 0.481289208344275
1.3519999999999999 0.0 0.481289208344275
0.9389999999999998 0.0 0.481289208344275
1.3519999999999999 -0.3 0.481289208344275
1.765 -0.3 0.481289208344275
1.765 0.0 0.481289208344275
1.3519999999999999 0.0 0.481289208344275
1.765 -0.3 0.481289208344275
2.178 -0.3 0.481289208344275
2.178 0.0 0.481289208344275
1.765 0.0 0.481289208344275
2.178 -0.3 0.481289208344275
2.5909999999999997 -0.3 0.481289208344275
2.5909999999999997 0.0 0.481289208344275
2.178 0.0 0.481289208344275
2.591 -0.3 0.481289208344275
3.004 -0.3 0.481289208344275
3.004 0.0 0.481289208344275
2.591 0.0 0.481289208344275
3.004 -0.3 0.481289208344275
3.417 -0.3 0.481289208344275
3.417 0.0 0.481289208344275
3.004 0.0 0.481289208344275
3.417 -0.3 0.481289208344275
3.8299999999999996 -0.3 0.481289208344275
3.8299999999999996 0.0 0.481289208344275
3.417 0.0 0.481289208344275
3.83 -0.3 0.481289208344275
4.243 -0.3 0.481289208344275
4.243 0.0 0.481289208344275
3.83 0.0 0.481289208344275
4.243 -0.3 0.481289208344275
4.656000000000001 -0.3 0.481289208344275
4.656000000000001 0.0 0.481289208344275
4.243 0.0 0.481289208344275
-0.3 0.0 0.481289208344275
0.11299999999999999 0.0 0.481289208344275
0.11299999999999999 0.3 0.481289208344275
-0.3 0.3 0.481289208344275
0.11299999999999999 0.0 0.481289208344275
0.526 0.0 0.481289208344275
0.526 0.3 0.481289208344275
0.11299999999999999 0.3 0.481289208344275
0.526 0.0 0.481289208344275
0.9390000000000001 0.0 0.481289208344275
0.9390000000000001 0.3 0.481289208344275
0.526 0.3 0.481289208344275
0.9389999999999998 0.0 0.481289208344275
1.3519999999999999 0.0 0.481289208344275
1.3519999999999999 0.3 0.481289208344275
0.9389999999999998 0.3 0.481289208344275
1.3519999999999999 0.0 0.481289208344275
1.765 0.0 0.481289208344275
1.765 0.3 0.481289208344275
1.3519999999999999 0.3 0.481289208344275
1.765 0.0 0.481289208344275
2.178 0.0 0.481289208344275
2.178 0.3 0.481289208344275
1.765 0.3 0.481289208344275
2.178 0.0 0.481289208344275
2.5909999999999997 0.0 0.481289208344275
2.5909999999999997 0.3 0.481289208344275
2.178 0.3 0.481289208344275
2.591 0.0 0.481289208344275
3.004 0.0 0.481289208344275
3.004 0.3 0.481289208344275
2.591 0.3 0.481289208344275
3.004 0.0 0.481289208344275
3.417 0.0 0.481289208344275
3.417 0.3 0.481289208344275
3.004 0.3 0.481289208344275
3.417 0.0 0.481289208344275
3.8299999999999996 0.0 0.481289208344275
3.8299999999999996 0.3 0.481289208344275
3.417 0.3 0.481289208344275
3.83 0.0 0.481289208344275
4.243 0.0 0.481289208344275
4.243 0.3 0.481289208344275
3.83 0.3 0.481289208344275
4.243 0.0 0.481289208344275
4.656000000000001 0.0 0.481289208344275
4.656000000000001 0.3 0.481289208344275
4.243 0.3 0.481289208344275
-0.3 0.29999999999999993 0.481289208344275
0.11299999999999999 0.29999999999999993 0.481289208344275
0.11299999999999999 0.5999999999999999 0.481289208344275
-0.3 0.5999999999999999 0.481289208344275
0.11299999999999999 0.29999999999999993 0.481289208344275
0.526 0.29999999999999993 0.481289208344275
0.526 0.5999999999999999 0.481289208344275
0.11299999999999999 0.5999999999999999 0.481289208344275
0.526 0.29999999999999993 0.481289208344275
0.9390000000000001 0.29999999999999993 0.481289208344275
0.9390000000000001 0.5999999999999999 0.481289208344275
0.526 0.5999999999999999 0.481289208344275
0.9389999999999998 0.29999999999999993 0.481289208344275
1.3519999999999999 0.29999999999999993 0.481289208344275
1.3519999999999999 0.5999999999999999 0.481289208344275
0.9389999999999998 0.5999999999999999 0.481289208344275
1.3519999999999999 0.29999999999999993 0.481289208344275
1.765 0.29999999999999993 0.481289208344275
1.765 0.5999999999999999 0.481289208344275
1.3519999999999999 0.5999999999999999 0.481289208344275
1.765 0.29999999999999993 0.481289208344275
2.178 0.29999999999999993 0.481289208344275
2.178 0.5999999999999999 0.481289208344275
1.765 0.5999999999999999 0.481289208344275
2.178 0.29999999999999993 0.481289208344275
2.5909999999999997 0.29999999999999993 0.481289208344275
2.5909999999999997 0.5999999999999999 0.481289208344275
2.178 0.5999999999999999 0.481289208344275
2.591 0.29999999999999993 0.481289208344275
3.004 0.29999999999999993 0.481289208344275
3.004 0.5999999999999999 0.481289208344275
2.591 0.5999999999999999 0.481289208344275
3.004 0.29999999999999993 0.481289208344275
3.417 0.29999999999999993 0.481289208344275
3.417 0.5999999999999999 0.481289208344275
3.004 0.5999999999999999 0.481289208344275
3.417 0.29999999999999993 0.481289208344275
3.8299999999999996 0.29999999999999993 0.481289208344275
3.8299999999999996 0.5999999999999999 0.481289208344275
3.417 0.5999999999999999 0.481289208344275
3.83 0.29999999999999993 0.481289208344275
4.243 0.29999999999999993 0.481289208344275
4.243 0.5999999999999999 0.481289208344275
3.83 0.5999999999999999 0.481289208344275
4.243 0.29999999999999993 0.481289208344275
4.656000000000001 0.29999999999999993 0.481289208344275
4.656000000000001 0.5999999999999999 0.481289208344275
4.243 0.5999999999999999 0.481289208344275
CELLS 650 3250
4 0 1 17 16
4 1 2 18 17
4 2 3 19 18
4 3 4 20 19
4 4 5 21 20
4 5 6 22 21
4 6 7 23 22
4 7 8 24 23
4 8 9 25 24
4 9 10 26 25
4 10 11 27 26
4 11 12 28 27
4 12 13 29 28
4 13 14 30 29
4 14 15 31 30
4 15 0 16 31
4 16 17 33 32
4 17 18 34 33
4 18 19 35 34
4 19 20 36 35
4 20 21 37 36
4 21 22 38 37
4 22 23 39 38
4 23 24 40 39
4 24 25 41 40
4 25 26 42 41
4 26 27 43 42
4 27 28 44 43
4 28 29 45 44
4 29 30 46 45
4 30 31 47 46
4 31 16 32 47
4 32 33 49 48
4 33 34 50 49
4 34 35 51 50
4 35 36 52 51
4 36 37 53 52
4 37 38 54 53
4 38 39 55 54
4 39 40 56 55
4 40 41 57 56
4 41 42 58 57
4 42 43 59 58
4 43 44 60 59
4 44 45 61 60
4 45 46 62 61
4 46 47 63 62
4 47 32 48 63
4 48 49 65 64
4 49 50 66 65
4 50 51 67 66
4 51 52 68 67
4 52 53 69 68
4 53 54 70 69
4 54 55 71 70
4 55 56 72 71
4 56 57 73 72
4 57 58 74 73
4 58 59 75 74
4 59 60 76 75
4 60 61 77 76
4 61 62 78 77
4 62 63 79 78
4 63 48 64 79
4 64 65 81 80
4 65 66 82 81
4 66 67 83 82
4 67 68 84 83
4 68 69 85 84
4 69 70 86 85
4 70 71 87 86
4 71 72 88 87
4 72 73 89 88
4 73 74 90 89
4 74 75 91 90
4 75 76 92 91
4 76 77 93 92
4 77 78 94 93
4 78 79 95 94
4 79 64 80 95
4 80 81 97 96
4 81 82 98 97
4 82 83 99 98
4 83 84 100 99
4 84 85 101 100
4 85 86 102 101
4 86 87 103 102
4 87 88 104 103
4 88 89 105 104
4 89 90 106 105
4 90 91 107 106
4 91 92 108 107
4 92 93 109 108
4 93 94 110 109
4 94 95 111 110
4 95 80 96 111
4 96 97 113 112
4 97 98 114 113
4 98 99 115 114
4 99 100 116 115
4 100 101 117 116
4 101 102 118 117
4 102 103 119 118
4 103 104 120 119
4 104 105 121 120
4 105 106 122 121
4 106 107 123 122
4 107 108 124 123
4 108 109 125 124
4 109 110 126 125
4 110 111 127 126
4 111 96 112 127
4 112 113 129 128
4 113 114 130 129
4 114 115 131 130
4 115 116 132 131
4 116 117 133 132
4 117 118 134 133
4 118 119 135 134
4 119 120 136 135
4 120 121 137 136
4 121 122 138 137
4 122 123 139 138
4 123 124 140 139
4 124 125 141 140
4 125 126 142 141
4 126 127 143 142
4 127 112 128 143
4 128 129 145 144
4 129 130 146 145
4 130 131 147 146
4 131 132 148 147
4 132 133 149 148
4 133 134 150 149
4 134 135 151 150
4 135 136 152 151
4 136 137 153 152
4 137 138 154 153
4 138 139 155 154
4 139 140 156 155
4 140 141 157 156
4 141 142 158 157
4 142 143 159 158
4 143 128 144 159
4 144 145 161 160
4 145 146 162 161
4 146 147 163 162
4 147 148 164 163
4 148 149 165 164
4 149 150 166 165
4 150 151 167 166
4 151 152 168 167
4 152 153 169 168
4 153 154 170 169
4 154 155 171 170
4 155 156 172 171
4 156 157 173 172
4 157 158 174 173
4 158 159 175 174
4 159 144 160 175
4 160 161 177 176
4 161 162 178 177
4 162 163 179 178
4 163 164 180 179
4 164 165 181 180
4 165 166 182 181
4 166 167 183 182
4 167 168 184 183
4 168 169 185 184
4 169 170 186 185
4 170 171 187 186
4 171 172 188 187
4 172 173 189 188
4 173 174 190 189
4 174 175 191 190
4 175 160 176 191
4 176 177 193 192
4 177 178 194 193
4 178 179 195 194
4 179 180 196 195
4 180 181 197 196
4 181 182 198 197
4 182 183 199 198
4 183 184 200 199
4 184 185 201 200
4 185 186 202 201
4 186 187 203 202
4 187 188 204 203
4 188 189 205 204
4 189 190 206 205
4 190 191 207 206
4 191 176 192 207
4 192 193 209 208
4 193 194 210 209
4 194 195 211 210
4 195 196 212 211
4 196 197 213 212
4 197 198 214 213
4 198 199 215 214
4 199 200 216 215
4 200 201 217 216
4 201 202 218 217
4 202 203 219 218
4 203 204 220 219
4 204 205 221 220
4 205 206 222 221
4 206 207 223 222
4 207 192 208 223
4 208 209 225 224
4 209 210 226 225
4 210 211 227 226
4 211 212 228 227
4 212 213 229 228
4 213 214 230 229
4 214 215 231 230
4 215 216 232 231
4 216 217 233 232
4 217 218 234 233
4 218 219 235 234
4 219 220 236 235
4 220 221 237 236
4 221 222 238 237
4 222 223 239 238
4 223 208 224 239
4 224 225 241 240
4 225 226 242 241
4 226 227 243 242
4 227 228 244 243
4 228 229 245 244
4 229 230 246 245
4 230 231 247 246
4 231 232 248 247
4 232 233 249 248
4 233 234 250 249
4 234 235 251 250
4 235 236 252 251
4 236 237 253 252
4 237 238 254 253
4 238 239 255 254
4 239 224 240 255
4 240 241 257 256
4 241 242 258 257
4 242 243 259 258
4 243 244 260 259
4 244 245 261 260
4 245 246 262 261
4 246 247 263 262
4 247 248 264 263
4 248 249 265 264
4 249 250 266 265
4 250 251 267 266
4 251 252 268 267
4 252 253 269 268
4 253 254 270 269
4 254 255 271 270
4 255 240 256 271
4 256 257 273 272
4 257 258 274 273
4 258 259 275 274
4 259 260 276 275
4 260 261 277 276
4 261 262 278 277
4 262 263 279 278
4 263 264 280 279
4 264 265 281 280
4 265 266 282 281
4 266 267 283 282
4 267 268 284 283
4 268 269 285 284
4 269 270 286 285
4 270 271 287 286
4 271 256 272 287
4 272 273 289 288
4 273 274 290 289
4 274 275 291 290
4 275 276 292 291
4 276 277 293 292
4 277 278 294 293
4 278 279 295 294
4 279 280 296 295
4 280 281 297 296
4 281 282 298 297
4 282 283 299 298
4 283 284 300 299
4 284 285 301 300
4 285 286 302 301
4 286 287 303 302
4 287 272 288 303
4 288 289 305 304
4 289 290 306 305
4 290 291 307 306
4 291 292 308 307
4 292 293 309 308
4 293 294 310 309
4 294 295 311 310
4 295 296 312 311
4 296 297 313 312
4 297 298 314 313
4 298 299 315 314
4 299 300 316 315
4 300 301 317 316
4 301 302 318 317
4 302 303 319 318
4 303 288 304 319
4 304 305 321 320
4 305 306 322 321
4 306 307 323 322
4 307 308 324 323
4 308 309 325 324
4 309 310 326 325
4 310 311 327 326
4 311 312 328 327
4 312 313 329 328
4 313 314 330 329
4 314 315 331 330
4 315 316 332 331
4 316 317 333 332
4 317 318 334 333
4 318 319 335 334
4 319 304 320 335
4 320 321 337 336
4 321 322 338 337
4 322 323 339 338
4 323 324 340 339
4 324 325 341 340
4 325 326 342 341
4 326 327 343 342
4 327 328 344 343
4 328 329 345 344
4 329 330 346 345
4 330 331 347 346
4 331 332 348 347
4 332 333 349 348
4 333 334 350 349
4 334 335 351 350
4 335 320 336 351
4 336 337 353 352
4 337 338 354 353
4 338 339 355 354
4 339 340 356 355
4 340 341 357 356
4 341 342 358 357
4 342 343 359 358
4 343 344 360 359
4 344 345 361 360
4 345 346 362 361
4 346 347 363 362
4 347 348 364 363
4 348 349 365 364
4 349 350 366 365
4 350 351 367 366
4 351 336 352 367
4 352 353 369 368
4 353 354 370 369
4 354 355 371 370
4 355 356 372 371
4 356 357 373 372
4 357 358 374 373
4 358 359 375 374
4 359 360 376 375
4 360 361 377 376
4 361 362 378 377
4 362 363 379 378
4 363 364 380 379
4 364 365 381 380
4 365 366 382 381
4 366 367 383 382
4 367 352 368 383
4 368 369 385 384
4 369 370 386 385
4 370 371 387 386
4 371 372 388 387
4 372 373 389 388
4 373 374 390 389
4 374 375 391 390
4 375 376 392 391
4 376 377 393 392
4 377 378 394 393
4 378 379 395 394
4 379 380 396 395
4 380 381 397 396
4 381 382 398 397
4 382 383 399 398
4 383 368 384 399
4 384 385 401 400
4 385 386 402 401
4 386 387 403 402
4 387 388 404 403
4 388 389 405 404
4 389 390 406 405
4 390 391 407 406
4 391 392 408 407
4 392 393 409 408
4 393 394 410 409
4 394 395 411 410
4 395 396 412 411
4 396 397 413 412
4 397 398 414 413
4 398 399 415 414
4 399 384 400 415
4 400 401 417 416
4 401 402 418 417
4 402 403 419 418
4 403 404 420 419
4 404 405 421 420
4 405 406 422 421
4 406 407 423 422
4 407 408 424 423
4 408 409 425 424
4 409 410 426 425
4 410 411 427 426
4 411 412 428 427
4 412 413 429 428
4 413 414 430 429
4 414 415 431 430
4 415 400 416 431
4 416 417 433 432
4 417 418 434 433
4 418 419 435 434
4 419 420 436 435
4 420 421 437 436
4 421 422 438 437
4 422 423 439 438
4 423 424 440 439
4 424 425 441 440
4 425 426 442 441
4 426 427 443 442
4 427 428 444 443
4 428 429 445 444
4 429 430 446 445
4 430 431 447 446
4 431 416 432 447
4 432 433 449 448
4 433 434 450 449
4 434 435 451 450
4 435 436 452 451
4 436 437 453 452
4 437 438 454 453
4 438 439 455 454
4 439 440 456 455
4 440 441 457 456
4 441 442 458 457
4 442 443 459 458
4 443 444 460 459
4 444 445 461 460
4 445 446 462 461
4 446 447 463 462
4 447 432 448 463
4 448 449 465 464
4 449 450 466 465
4 450 451 467 466
4 451 452 468 467
4 452 453 469 468
4 453 454 470 469
4 454 455 471 470
4 455 456 472 471
4 456 457 473 472
4 457 458 474 473
4 458 459 475 474
4 459 460 476 475
4 460 461 477 476
4 461 462 478 477
4 462 463 479 478
4 463 448 464 479
4 464 465 481 480
4 465 466 482 481
4 466 467 483 482
4 467 468 484 483
4 468 469 485 484
4 469 470 486 485
4 470 471 487 486
4 471 472 488 487
4 472 473 489 488
4 473 474 490 489
4 474 475 491 490
4 475 476 492 491
4 476 477 493 492
4 477 478 494 493
4 478 479 495 494
4 479 464 480 495
4 11 496 13 12
4 496 497 14 13
4 497 498 15 14
4 498 1 0 15
4 10 499 496 11
4 499 500 497 496
4 500 501 498 497
4 501 2 1 498
4 9 502 499 10
4 502 503 500 499
4 503 504 501 500
4 504 3 2 501
4 8 7 502 9
4 7 6 503 502
4 6 5 504 503
4 5 4 3 504
4 492 493 505 491
4 493 494 506 505
4 494 495 507 506
4 495 480 481 507
4 491 505 508 490
4 505 506 509 508
4 506 507 510 509
4 507 481 482 510
4 490 508 511 489
4 508 509 512 511
4 509 510 513 512
4 510 482 483 513
4 489 511 487 488
4 511 512 486 487
4 512 513 485 486
4 513 483 484 485
4 70 86 517 514
4 514 517 518 515
4 515 518 519 516
4 86 102 520 517
4 517 520 521 518
4 518 521 522 519
4 102 118 523 520
4 520 523 524 521
4 521 524 525 522
4 118 150 526 523
4 523 526 527 524
4 524 527 528 525
4 150 166 529 526
4 526 529 530 527
4 527 530 531 528
4 166 182 532 529
4 529 532 533 530
4 530 533 534 531
4 354 370 538 535
4 535 538 539 536
4 536 539 540 537
4 370 386 541 538
4 538 541 542 539
4 539 542 543 540
4 386 402 544 541
4 541 544 545 542
4 542 545 546 543
4 402 418 547 544
4 544 547 548 545
4 545 548 549 546
4 418 434 550 547
4 547 550 551 548
4 548 551 552 549
4 434 450 553 550
4 550 553 554 551
4 551 554 555 552
4 362 378 559 556
4 556 559 560 557
4 557 560 561 558
4 378 394 562 559
4 559 562 563 560
4 560 563 564 561
4 394 410 565 562
4 562 565 566 563
4 563 566 567 564
4 410 426 568 565
4 565 568 569 566
4 566 569 570 567
4 426 442 571 568
4 568 571 572 569
4 569 572 573 570
4 442 458 574 571
4 571 574 575 572
4 572 575 576 573
4 358 374 580 577
4 577 580 581 578
4 578 581 582 579
4 374 390 583 580
4 580 583 584 581
4 581 584 585 582
4 390 406 586 583
4 583 586 587 584
4 584 587 588 585
4 406 422 589 586
4 586 589 590 587
4 587 590 591 588
4 422 438 592 589
4 589 592 593 590
4 590 593 594 591
4 438 454 595 592
4 592 595 596 593
4 593 596 597 594
4 366 382 601 598
4 598 601 602 599
4 599 602 603 600
4 382 398 604 601
4 601 604 605 602
4 602 605 606 603
4 398 414 607 604
4 604 607 608 605
4 605 608 609 606
4 414 430 610 607
4 607 610 611 608
4 608 611 612 609
4 430 446 613 610
4 610 613 614 611
4 611 614 615 612
4 446 462 616 613
4 613 616 617 614
4 614 617 618 615
4 619 620 621 622
4 623 624 625 626
4 627 628 629 630
4 631 632 633 634
4 635 636 637 638
4 639 640 641 642
4 643 644 645 646
4 647 648 649 650
4 651 652 653 654
4 655 656 657 658
4 659 660 661 662
4 663 664 665 666
4 667 668 669 670
4 671 672 673 674
4 675 676 677 678
4 679 680 681 682
4 683 684 685 686
4 687 688 689 690
4 691 692 693 694
4 695 696 697 698
4 699 700 701 702
4 703 704 705 706
4 707 708 709 710
4 711 712 713 714
4 715 716 717 718
4 719 720 721 722
4 723 724 725 726
4 727 728 729 730
4 731 732 733 734
4 735 736 737 738
4 739 740 741 742
4 743 744 745 746
4 747 748 749 750
4 751 752 753 754
4 755 756 757 758
4 759 760 761 762
4 763 764 765 766
4 767 768 769 770
4 771 772 773 774
4 775 776 777 778
4 779 780 781 782
4 783 784 785 786
4 787 788 789 790
4 791 792 793 794
4 795 796 797 798
4 799 800 801 802
4 803 804 805 806
4 807 808 809 810
CELL_TYPES 650
9
9
9
9
9
9
9
9
9
9
9
9
9
9
9
9
9
9
9
9
9
9
9
9
9
9
9
9
9
9
9
9
9
9
9
9
9
9
9
9
9
9
9
9
9
9
9
9
9
9
9
9
9
9
9
9
9
9
9
9
9
9
9
9
9
9
9
9
9
9
9
9
9
9
9
9
9
9
9
9
9
9
9
9
9
9
9
9
9
9
9
9
9
9
9
9
9
9
9
9
9
9
9
9
9
9
9
9
9
9
9
9
9
9
9
9
9
9
9
9
9
9
9
9
9
9
9
9
9
9
9
9
9
9
9
9
9
9
9
9
9
9
9
9
9
9
9
9
9
9
9
9
9
9
9
9
9
9
9
9
9
9
9
9
9
9
9
9
9
9
9
9
9
9
9
9
9
9
9
9
9
9
9
9
9
9
9
9
9
9
9
9
9
9
9
9
9
9
9
9
9
9
9
9
9
9
9
9
9
9
9
9
9
9
9
9
9
9
9
9
9
9
9
9
9
9
9
9
9
9
9
9
9
9
9
9
9
9
9
9
9
9
9
9
9
9
9
9
9
9
9
9
9
9
9
9
9
9
9
9
9
9
9
9
9
9
9
9
9
9
9
9
9
9
9
9
9
9
9
9
9
9
9
9
9
9
9
9
9
9
9
9
9
9
9
9
9
9
9
9
9
9
9
9
9
9
9
9
9
9
9
9
9
9
9
9
9
9
9
9
9
9
9
9
9
9
9
9
9
9
9
9
9
9
9
9
9
9
9
9
9
9
9
9
9
9
9
9
9
9
9
9
9
9
9
9
9
9
9
9
9
9
9
9
9
9
9
9
9
9
9
9
9
9
9
9
9
9
9
9
9
9
9
9
9
9
9
9
9
9
9
9
9
9
9
9
9
9
9
9
9
9
9
9
9
9
9
9
9
9
9
9
9
9
9
9
9
9
9
9
9
9
9
9
9
9
9
9
9
9
9
9
9
9
9
9
9
9
9
9
9
9
9
9
9
9
9
9
9
9
9
9
9
9
9
9
9
9
9
9
9
9
9
9
9
9
9
9
9
9
9
9
9
9
9
9
9
9
9
9
9
9
9
9
9
9
9
9
9
9
9
9
9
9
9
9
9
9
9
9
9
9
9
9
9
9
9
9
9
9
9
9
9
9
9
9
9
9
9
9
9
9
9
9
9
9
9
9
9
9
9
9
9
9
9
9
9
9
9
9
9
9
9
9
9
9
9
9
9
9
9
9
9
9
9
9
9
9
9
9
9
9
9
9
9
9
9
9
9
9
9
9
9
9
9
9
9
9
9
9
9
9
9
9
9
9
9
9
9
9
9
9
9
9
9
9
9
9
9
9
9
9
9
9
9
9
9
9
9
9
9
9
9
9
9
9
9
9
9
9
9
9
9
9
9
9
9
9
9
9
9
9
9
9
9
9
9
9
9
9
9
9
9
9
9
9
9
9
9
9
CELL_DATA 650
SCALARS component int 1
LOOKUP_TABLE default
0
0
0
0
0
0
0
0
0
0
0
0
0
0
0
0
0
0
0
0
0
0
0
0
0
0
0
0
0
0
0
0
0
0
0
0
0
0
0
0
0
0
0
0
0
0
0
0
0
0
0
0
0
0
0
0
0
0
0
0
0
0
0
0
0
0
0
0
0
0
0
0
0
0
0
0
0
0
0
0
0
0
0
0
0
0
0
0
0
0
0
0
0
0
0
0
0
0
0
0
0
0
0
0
0
0
0
0
0
0
0
0
0
0
0
0
0
0
0
0
0
0
0
0
0
0
0
0
0
0
0
0
0
0
0
0
0
0
0
0
0
0
0
0
0
0
0
0
0
0
0
0
0
0
0
0
0
0
0
0
0
0
0
0
0
0
0
0
0
0
0
0
0
0
0
0
0
0
0
0
0
0
0
0
0
0
0
0
0
0
0
0
0
0
0
0
0
0
0
0
0
0
0
0
0
0
0
0
0
0
0
0
0
0
0
0
0
0
0
0
0
0
0
0
0
0
0
0
0
0
0
0
0
0
0
0
0
0
0
0
0
0
0
0
0
0
0
0
0
0
0
0
0
0
0
0
0
0
0
0
0
0
0
0
0
0
0
0
0
0
0
0
0
0
0
0
0
0
0
0
0
0
0
0
0
0
0
0
0
0
0
0
0
0
0
0
0
0
0
0
0
0
0
0
0
0
0
0
0
0
0
0
0
0
0
0
0
0
0
0
0
0
0
0
0
0
0
0
0
0
0
0
0
0
0
0
0
0
0
0
0
0
0
0
0
0
0
0
0
0
0
0
0
0
0
0
0
0
0
0
0
0
0
0
0
0
0
0
0
0
0
0
0
0
0
0
0
0
0
0
0
0
0
0
0
0
0
0
0
0
0
0
0
0
0
0
0
0
0
0
0
0
0
0
0
0
0
0
0
0
0
0
0
0
0
0
0
0
0
0
0
0
0
0
0
0
0
0
0
0
0
0
0
0
0
0
0
0
0
0
0
0
0
0
0
0
0
0
0
0
0
0
0
0
0
0
0
0
0
0
0
0
0
0
0
0
0
0
0
0
0
0
0
0
0
0
0
0
0
0
0
0
0
0
0
0
0
0
0
0
0
0
0
0
0
0
0
0
0
0
0
0
0
0
0
0
0
0
0
0
0
0
1
1
1
1
1
1
1
1
1
1
1
1
1
1
1
1
1
1
2
2
2
2
2
2
2
2
2
2
2
2
2
2
2
2
2
2
3
3
3
3
3
3
3
3
3
3
3
3
3
3
3
3
3
3
4
4
4
4
4
4
4
4
4
4
4
4
4
4
4
4
4
4
5
5
5
5
5
5
5
5
5
5
5
5
5
5
5
5
5
5
-1
-1
-1
-1
-1
-1
-1
-1
-1
-1
-1
-1
-1
-1
-1
-1
-1
-1
-1
-1
-1
-1
-1
-1
-1
-1
-1
-1
-1
-1
-1
-1
-1
-1
-1
-1
-1
-1
-1
-1
-1
-1
-1
-1
-1
-1
-1
-1
POINT_DATA 811
VECTORS displacement double
0.0 0.0 0.0
0.0 0.0 0.0
0.0 0.0 0.0
0.0 0.0 0.0
0.0 0.0 0.0
0.0 0.0 0.0
0.0 0.0 0.0
0.0 0.0 0.0
0.0 0.0 0.0
0.0 0.0 0.0
0.0 0.0 0.0
0.0 0.0 0.0
0.0 0.0 0.0
0.0 0.0 0.0
0.0 0.0 0.0
0.0 0.0 0.0
0.0 0.0 0.0
0.0 0.0 0.0
0.0 0.0 0.0
0.0 0.0 0.0
0.0 0.0 0.0
0.0 0.0 0.0
0.0 0.0 0.0
0.0 0.0 0.0
0.0 0.0 0.0
0.0 0.0 0.0
0.0 0.0 0.0
0.0 0.0 0.0
0.0 0.0 0.0
0.0 0.0 0.0
0.0 0.0 0.0
0.0 0.0 0.0
0.0 0.0 0.0
0.0 0.0 0.0
0.0 0.0 0.0
0.0 0.0 0.0
0.0 0.0 0.0
0.0 0.0 0.0
0.0 0.0 0.0
0.0 0.0 0.0
0.0 0.0 0.0
0.0 0.0 0.0
0.0 0.0 0.0
0.0 0.0 0.0
0.0 0.0 0.0
0.0 0.0 0.0
0.0 0.0 0.0
0.0 0.0 0.0
0.0 0.0 0.0
0.0 0.0 0.0
0.0 0.0 0.0
0.0 0.0 0.0
0.0 0.0 0.0
0.0 0.0 0.0
0.0 0.0 0.0
0.0 0.0 0.0
0.0 0.0 0.0
0.0 0.0 0.0
0.0 0.0 0.0
0.0 0.0 0.0
0.0 0.0 0.0
0.0 0.0 0.0
0.0 0.0 0.0
0.0 0.0 0.0
0.0 0.0 0.0
0.0 0.0 0.0
0.0 0.0 0.0
0.0 0.0 0.0
0.0 0.0 0.0
0.0 0.0 0.0
0.0 0.0 0.0
0.0 0.0 0.0
0.0 0.0 0.0
0.0 0.0 0.0
0.0 0.0 0.0
0.0 0.0 0.0
0.0 0.0 0.0
0.0 0.0 0.0
0.0 0.0 0.0
0.0 0.0 0.0
0.0 0.0 0.0
0.0 0.0 0.0
0.0 0.0 0.0
0.0 0.0 0.0
0.0 0.0 0.0
0.0 0.0 0.0
0.0 0.0 0.0
0.0 0.0 0.0
0.0 0.0 0.0
0.0 0.0 0.0
0.0 0.0 0.0
0.0 0.0 0.0
0.0 0.0 0.0
0.0 0.0 0.0
0.0 0.0 0.0
0.0 0.0 0.0
0.0 0.0 0.0
0.0 0.0 0.0
0.0 0.0 0.0
0.0 0.0 0.0
0.0 0.0 0.0
0.0 0.0 0.0
0.0 0.0 0.0
0.0 0.0 0.0
0.0 0.0 0.0
0.0 0.0 0.0
0.0 0.0 0.0
0.0 0.0 0.0
0.0 0.0 0.0
0.0 0.0 0.0
0.0 0.0 0.0
0.0 0.0 0.0
0.0 0.0 0.0
0.0 0.0 0.0
0.0 0.0 0.0
0.0 0.0 0.0
0.0 0.0 0.0
0.0 0.0 0.0
0.0 0.0 0.0
0.0 0.0 0.0
0.0 0.0 0.0
0.0 0.0 0.0
0.0 0.0 0.0
0.0 0.0 0.0
0.0 0.0 0.0
0.0 0.0 0.0
0.0 0.0 0.0
0.0 0.0 0.0
0.0 0.0 0.0
0.0 0.0 0.0
0.0 0.0 0.0
0.0 0.0 0.0
0.0 0.0 0.0
0.0 0.0 0.0
0.0 0.0 0.0
0.0 0.0 0.0
0.0 0.0 0.0
0.0 0.0 0.0
0.0 0.0 0.0
0.0 0.0 0.0
0.0 0.0 0.0
0.0 0.0 0.0
0.0 0.0 0.0
0.0 0.0 0.0
0.0 0.0 0.0
0.0 0.0 0.0
0.0 0.0 0.0
0.0 0.0 0.0
0.0 0.0 0.0
0.0 0.0 0.0
0.0 0.0 0.0
0.0 0.0 0.0
0.0 0.0 0.0
0.0 0.0 0.0
0.0 0.0 0.0
0.0 0.0 0.0
0.0 0.0 0.0
0.0 0.0 0.0
0.0 0.0 0.0
0.0 0.0 0.0
0.0 0.0 0.0
0.0 0.0 0.0
0.0 0.0 0.0
0.0 0.0 0.0
0.0 0.0 0.0
0.0 0.0 0.0
0.0 0.0 0.0
0.0 0.0 0.0
0.0 0.0 0.0
0.0 0.0 0.0
0.0 0.0 0.0
0.0 0.0 0.0
0.0 0.0 0.0
0.0 0.0 0.0
0.0 0.0 0.0
0.0 0.0 0.0
0.0 0.0 0.0
0.0 0.0 0.0
0.0 0.0 0.0
0.0 0.0 0.0
0.0 0.0 0.0
0.0 0.0 0.0
0.0 0.0 0.0
0.0 0.0 0.0
0.0 0.0 0.0
0.0 0.0 0.0
0.0 0.0 0.0
0.0 0.0 0.0
0.0 0.0 0.0
0.0 0.0 0.0
0.0 0.0 0.0
0.0 0.0 0.0
0.0 0.0 0.0
0.0 0.0 0.0
0.0 0.0 0.0
0.0 0.0 0.0
0.0 0.0 0.0
0.0 0.0 0.0
0.0 0.0 0.0
0.0 0.0 0.0
0.0 0.0 0.0
0.0 0.0 0.0
0.0 0.0 0.0
0.0 0.0 0.0
0.0 0.0 0.0
0.0 0.0 0.0
0.0 0.0 0.0
0.0 0.0 0.0
0.0 0.0 0.0
0.0 0.0 0.0
0.0 0.0 0.0
0.0 0.0 0.0
0.0 0.0 0.0
0.0 0.0 0.0
0.0 0.0 0.0
0.0 0.0 0.0
0.0 0.0 0.0
0.0 0.0 0.0
0.0 0.0 0.0
0.0 0.0 0.0
0.0 0.0 0.0
0.0 0.0 0.0
0.0 0.0 0.0
0.0 0.0 0.0
0.0 0.0 0.0
0.0 0.0 0.0
0.0 0.0 0.0
0.0 0.0 0.0
0.0 0.0 0.0
0.0 0.0 0.0
0.0 0.0 0.0
0.0 0.0 0.0
0.0 0.0 0.0
0.0 0.0 0.0
0.0 0.0 0.0
0.0 0.0 0.0
0.0 0.0 0.0
0.0 0.0 0.0
0.0 0.0 0.0
0.0 0.0 0.0
0.0 0.0 0.0
0.0 0.0 0.0
0.0 0.0 0.0
0.0 0.0 0.0
0.0 0.0 0.0
0.0 0.0 0.0
0.0 0.0 0.0
0.0 0.0 0.0
0.0 0.0 0.0
0.0 0.0 0.0
0.0 0.0 0.0
0.0 0.0 0.0
0.0 0.0 0.0
0.0 0.0 0.0
0.0 0.0 0.0
0.0 0.0 0.0
0.0 0.0 0.0
0.0 0.0 0.0
0.0 0.0 0.0
0.0 0.0 0.0
0.0 0.0 0.0
0.0 0.0 0.0
0.0 0.0 0.0
0.0 0.0 0.0
0.0 0.0 0.0
0.0 0.0 0.0
0.0 0.0 0.0
0.0 0.0 0.0
0.0 0.0 0.0
0.0 0.0 0.0
0.0 0.0 0.0
0.0 0.0 0.0
0.0 0.0 0.0
0.0 0.0 0.0
0.0 0.0 0.0
0.0 0.0 0.0
0.0 0.0 0.0
0.0 0.0 0.0
0.0 0.0 0.0
0.0 0.0 0.0
0.0 0.0 0.0
0.0 0.0 0.0
0.0 0.0 0.0
0.0 0.0 0.0
0.0 0.0 0.0
0.0 0.0 0.0
0.0 0.0 0.0
0.0 0.0 0.0
0.0 0.0 0.0
0.0 0.0 0.0
0.0 0.0 0.0
0.0 0.0 0.0
0.0 0.0 0.0
0.0 0.0 0.0
0.0 0.0 0.0
0.0 0.0 0.0
0.0 0.0 0.0
0.0 0.0 0.0
0.0 0.0 0.0
0.0 0.0 0.0
0.0 0.0 0.0
0.0 0.0 0.0
0.0 0.0 0.0
0.0 0.0 0.0
0.0 0.0 0.0
0.0 0.0 0.0
0.0 0.0 0.0
0.0 0.0 0.0
0.0 0.0 0.0
0.0 0.0 0.0
0.0 0.0 0.0
0.0 0.0 0.0
0.0 0.0 0.0
0.0 0.0 0.0
0.0 0.0 0.0
0.0 0.0 0.0
0.0 0.0 0.0
0.0 0.0 0.0
0.0 0.0 0.0
0.0 0.0 0.0
0.0 0.0 0.0
0.0 0.0 0.0
0.0 0.0 0.0
0.0 0.0 0.0
0.0 0.0 0.0
0.0 0.0 0.0
0.0 0.0 0.0
0.0 0.0 0.0
0.0 0.0 0.0
0.0 0.0 0.0
0.0 0.0 0.0
0.0 0.0 0.0
0.0 0.0 0.0
0.0 0.0 0.0
0.0 0.0 0.0
0.0 0.0 0.0
0.0 0.0 0.0
0.0 0.0 0.0
0.0 0.0 0.0
0.0 0.0 0.0
0.0 0.0 0.0
0.0 0.0 0.0
0.0 0.0 0.0
0.0 0.0 0.0
0.0 0.0 0.0
0.0 0.0 0.0
0.0 0.0 0.0
0.0 0.0 0.0
0.0 0.0 0.0
0.0 0.0 0.0
0.0 0.0 0.0
0.0 0.0 0.0
0.0 0.0 0.0
0.0 0.0 0.0
0.0 0.0 0.0
0.0 0.0 0.0
0.0 0.0 0.0
0.0 0.0 0.0
0.0 0.0 0.0
0.0 0.0 0.0
0.0 0.0 0.0
0.0 0.0 0.0
0.0 0.0 0.0
0.0 0.0 0.0
0.0 0.0 0.0
0.0 0.0 0.0
0.0 0.0 0.0
0.0 0.0 0.0
0.0 0.0 0.0
0.0 0.0 0.0
0.0 0.0 0.0
0.0 0.0 0.0
0.0 0.0 0.0
0.0 0.0 0.0
0.0 0.0 0.0
0.0 0.0 0.0
0.0 0.0 0.0
0.0 0.0 0.0
0.0 0.0 0.0
0.0 0.0 0.0
0.0 0.0 0.0
0.0 0.0 0.0
0.0 0.0 0.0
0.0 0.0 0.0
0.0 0.0 0.0
0.0 0.0 0.0
0.0 0.0 0.0
0.0 0.0 0.0
0.0 0.0 0.0
0.0 0.0 0.0
0.0 0.0 0.0
0.0 0.0 0.0
0.0 0.0 0.0
0.0 0.0 0.0
0.0 0.0 0.0
0.0 0.0 0.0
0.0 0.0 0.0
0.0 0.0 0.0
0.0 0.0 0.0
0.0 0.0 0.0
0.0 0.0 0.0
0.0 0.0 0.0
0.0 0.0 0.0
0.0 0.0 0.0
0.0 0.0 0.0
0.0 0.0 0.0
0.0 0.0 0.0
0.0 0.0 0.0
0.0 0.0 0.0
0.0 0.0 0.0
0.0 0.0 0.0
0.0 0.0 0.0
0.0 0.0 0.0
0.0 0.0 0.0
0.0 0.0 0.0
0.0 0.0 0.0
0.0 0.0 0.0
0.0 0.0 0.0
0.0 0.0 0.0
0.0 0.0 0.0
0.0 0.0 0.0
0.0 0.0 0.0
0.0 0.0 0.0
0.0 0.0 0.0
0.0 0.0 0.0
0.0 0.0 0.0
0.0 0.0 0.0
0.0 0.0 0.0
0.0 0.0 0.0
0.0 0.0 0.0
0.0 0.0 0.0
0.0 0.0 0.0
0.0 0.0 0.0
0.0 0.0 0.0
0.0 0.0 0.0
0.0 0.0 0.0
0.0 0.0 0.0
0.0 0.0 0.0
0.0 0.0 0.0
0.0 0.0 0.0
0.0 0.0 0.0
0.0 0.0 0.0
0.0 0.0 0.0
0.0 0.0 0.0
0.0 0.0 0.0
0.0 0.0 0.0
0.0 0.0 0.0
0.0 0.0 0.0
0.0 0.0 0.0
0.0 0.0 0.0
0.0 0.0 0.0
0.0 0.0 0.0
0.0 0.0 0.0
0.0 0.0 0.0
0.0 0.0 0.0
0.0 0.0 0.0
0.0 0.0 0.0
0.0 0.0 0.0
0.0 0.0 0.0
0.0 0.0 0.0
0.0 0.0 0.0
0.0 0.0 0.0
0.0 0.0 0.0
0.0 0.0 0.0
0.0 0.0 0.0
0.0 0.0 0.0
0.0 0.0 0.0
0.0 0.0 0.0
0.0 0.0 0.0
0.0 0.0 0.0
0.0 0.0 0.0
0.0 0.0 0.0
0.0 0.0 0.0
0.0 0.0 0.0
0.0 0.0 0.0
0.0 0.0 0.0
0.0 0.0 0.0
0.0 0.0 0.0
0.0 0.0 0.0
0.0 0.0 0.0
0.0 0.0 0.0
0.0 0.0 0.0
0.0 0.0 0.0
0.0 0.0 0.0
0.0 0.0 0.0
0.0 0.0 0.0
0.0 0.0 0.0
0.0 0.0 0.0
0.0 0.0 0.0
0.0 0.0 0.0
0.0 0.0 0.0
0.0 0.0 0.0
0.0 0.0 0.0
0.0 0.0 0.0
0.0 0.0 0.0
0.0 0.0 0.0
0.0 0.0 0.0
0.0 0.0 0.0
0.0 0.0 0.0
0.0 0.0 0.0
0.0 0.0 0.0
0.0 0.0 0.0
0.0 0.0 0.0
0.0 0.0 0.0
0.0 0.0 0.0
0.0 0.0 0.0
0.0 0.0 0.0
0.0 0.0 0.0
0.0 0.0 0.0
0.0 0.0 0.0
0.0 0.0 0.0
0.0 0.0 0.0
0.0 0.0 0.0
0.0 0.0 0.0
0.0 0.0 0.0
0.0 0.0 0.0
0.0 0.0 0.0
0.0 0.0 0.0
0.0 0.0 0.0
0.0 0.0 0.0
0.0 0.0 0.0
0.0 0.0 0.0
0.0 0.0 0.0
0.0 0.0 0.0
0.0 0.0 0.0
0.0 0.0 0.0
0.0 0.0 0.0
0.0 0.0 0.0
0.0 0.0 0.0
0.0 0.0 0.0
0.0 0.0 0.0
0.0 0.0 0.0
0.0 0.0 0.0
0.0 0.0 0.0
0.0 0.0 0.0
0.0 0.0 0.0
0.0 0.0 0.0
0.0 0.0 0.0
0.0 0.0 0.0
0.0 0.0 0.0
0.0 0.0 0.0
0.0 0.0 0.0
0.0 0.0 0.0
0.0 0.0 0.0
0.0 0.0 0.0
0.0 0.0 0.0
0.0 0.0 0.0
0.0 0.0 0.0
0.0 0.0 0.0
0.0 0.0 0.0
0.0 0.0 0.0
0.0 0.0 0.0
0.0 0.0 0.0
0.0 0.0 0.0
0.0 0.0 0.0
0.0 0.0 0.0
0.0 0.0 0.0
0.0 0.0 0.0
0.0 0.0 0.0
0.0 0.0 0.0
0.0 0.0 0.0
0.0 0.0 0.0
0.0 0.0 0.0
0.0 0.0 0.0
0.0 0.0 0.0
0.0 0.0 0.0
0.0 0.0 0.0
0.0 0.0 0.0
0.0 0.0 0.0
0.0 0.0 0.0
0.0 0.0 0.0
0.0 0.0 0.0
0.0 0.0 0.0
0.0 0.0 0.0
0.0 0.0 0.0
0.0 0.0 0.0
0.0 0.0 0.0
0.0 0.0 0.0
0.0 0.0 0.0
0.0 0.0 0.0
0.0 0.0 0.0
0.0 0.0 0.0
0.0 0.0 0.0
0.0 0.0 0.0
0.0 0.0 0.0
0.0 0.0 0.0
0.0 0.0 0.0
0.0 0.0 0.0
0.0 0.0 0.0
0.0 0.0 0.0
0.0 0.0 0.0
0.0 0.0 0.0
0.0 0.0 0.0
0.0 0.0 0.0
0.0 0.0 0.0
0.0 0.0 0.0
0.0 0.0 0.0
0.0 0.0 0.0
0.0 0.0 0.0
0.0 0.0 0.0
0.0 0.0 0.0
0.0 0.0 0.0
0.0 0.0 0.0
0.0 0.0 0.0
0.0 0.0 0.0
0.0 0.0 0.0
0.0 0.0 0.0
0.0 0.0 0.0
0.0 0.0 0.0
0.0 0.0 0.0
0.0 0.0 0.0
0.0 0.0 0.0
0.0 0.0 0.0
0.0 0.0 0.0
0.0 0.0 0.0
0.0 0.0 0.0
0.0 0.0 0.0
0.0 0.0 0.0
0.0 0.0 0.0
0.0 0.0 0.0
0.0 0.0 0.0
0.0 0.0 0.0
0.0 0.0 0.0
0.0 0.0 0.0
0.0 0.0 0.0
0.0 0.0 0.0
0.0 0.0 0.0
0.0 0.0 0.0
0.0 0.0 0.0
0.0 0.0 0.0
0.0 0.0 0.0
0.0 0.0 0.0
0.0 0.0 0.0
0.0 0.0 0.0
0.0 0.0 0.0
0.0 0.0 0.0
0.0 0.0 0.0
0.0 0.0 0.0
0.0 0.0 0.0
0.0 0.0 0.0
0.0 0.0 0.0
0.0 0.0 0.0
0.0 0.0 0.0
0.0 0.0 0.0
0.0 0.0 0.0
0.0 0.0 0.0
0.0 0.0 0.0
0.0 0.0 0.0
0.0 0.0 0.0
0.0 0.0 0.0
0.0 0.0 0.0
0.0 0.0 0.0
0.0 0.0 0.0
0.0 0.0 0.0
0.0 0.0 0.0
0.0 0.0 0.0
0.0 0.0 0.0
0.0 0.0 0.0
0.0 0.0 0.0
0.0 0.0 0.0
0.0 0.0 0.0
0.0 0.0 0.0
0.0 0.0 0.0
0.0 0.0 0.0
0.0 0.0 0.0
0.0 0.0 0.0
0.0 0.0 0.0
0.0 0.0 0.0
0.0 0.0 0.0
0.0 0.0 0.0
0.0 0.0 0.0
0.0 0.0 0.0
0.0 0.0 0.0
0.0 0.0 0.0
0.0 0.0 0.0
0.0 0.0 0.0
0.0 0.0 0.0
0.0 0.0 0.0
0.0 0.0 0.0
0.0 0.0 0.0
0.0 0.0 0.0
0.0 0.0 0.0
0.0 0.0 0.0
0.0 0.0 0.0
0.0 0.0 0.0
0.0 0.0 0.0
0.0 0.0 0.0
0.0 0.0 0.0
0.0 0.0 0.0
0.0 0.0 0.0
0.0 0.0 0.0
0.0 0.0 0.0
0.0 0.0 0.0
0.0 0.0 0.0
0.0 0.0 0.0
0.0 0.0 0.0
0.0 0.0 0.0
0.0 0.0 0.0
0.0 0.0 0.0
0.0 0.0 0.0
0.0 0.0 0.0
0.0 0.0 0.0
0.0 0.0 0.0
0.0 0.0 0.0
0.0 0.0 0.0
0.0 0.0 0.0
0.0 0.0 0.0
0.0 0.0 0.0
0.0 0.0 0.0
0.0 0.0 0.0
0.0 0.0 0.0
0.0 0.0 0.0
0.0 0.0 0.0
0.0 0.0 0.0
0.0 0.0 0.0
0.0 0.0 0.0
0.0 0.0 0.0
0.0 0.0 0.0
0.0 0.0 0.0
0.0 0.0 0.0
0.0 0.0 0.0
0.0 0.0 0.0
0.0 0.0 0.0
0.0 0.0 0.0
0.0 0.0 0.0
0.0 0.0 0.0
0.0 0.0 0.0
0.0 0.0 0.0
0.0 0.0 0.0
0.0 0.0 0.0
0.0 0.0 0.0
0.0 0.0 0.0
0.0 0.0 0.0
0.0 0.0 0.0
0.0 0.0 0.0
0.0 0.0 0.0
0.0 0.0 0.0
0.0 0.0 0.0
0.0 0.0 0.0
0.0 0.0 0.0
0.0 0.0 0.0
0.0 0.0 0.0
0.0 0.0 0.0
0.0 0.0 0.0
0.0 0.0 0.0
0.0 0.0 0.0
0.0 0.0 0.0
0.0 0.0 0.0
0.0 0.0 0.0
0.0 0.0 0.0
0.0 0.0 0.0
0.0 0.0 0.0
0.0 0.0 0.0
0.0 0.0 0.0
0.0 0.0 0.0
0.0 0.0 0.0
0.0 0.0 0.0
0.0 0.0 0.0
0.0 0.0 0.0
0.0 0.0 0.0
0.0 0.0 0.0
0.0 0.0 0.0
0.0 0.0 0.0
0.0 0.0 0.0
0.0 0.0 0.0
0.0 0.0 0.0
0.0 0.0 0.0
0.0 0.0 0.0
0.0 0.0 0.0
0.0 0.0 0.0
0.0 0.0 0.0
0.0 0.0 0.0
0.0 0.0 0.0
0.0 0.0 0.0
0.0 0.0 0.0
0.0 0.0 0.0
0.0 0.0 0.0
0.0 0.0 0.0
0.0 0.0 0.0
0.0 0.0 0.0
0.0 0.0 0.0
0.0 0.0 0.0
0.0 0.0 0.0
0.0 0.0 0.0
0.0 0.0 0.0
0.0 0.0 0.0
0.0 0.0 0.0
0.0 0.0 0.0
0.0 0.0 0.0
0.0 0.0 0.0
0.0 0.0 0.0
0.0 0.0 0.0
0.0 0.0 0.0
0.0 0.0 0.0
0.0 0.0 0.0
0.0 0.0 0.0
0.0 0.0 0.0
0.0 0.0 0.0
0.0 0.0 0.0
0.0 0.0 0.0
0.0 0.0 0.0
0.0 0.0 0.0
0.0 0.0 0.0
0.0 0.0 0.0
0.0 0.0 0.0
0.0 0.0 0.0
0.0 0.0 0.0
0.0 0.0 0.0
0.0 0.0 0.0
0.0 0.0 0.0
0.0 0.0 0.0
